<svg width="24" height="24" viewBox="0 0 24 24" fill="none" xmlns="http://www.w3.org/2000/svg">
    <path opacity="0.4" d="M8 11.0001C8 11.613 8.34626 12.1732 8.89443 12.4473L12 14.0001V11.9475C12 10.0619 12 9.11905 12.5858 8.53327C13.1716 7.94748 14.1144 7.94748 16 7.94748H16.6362L13.0571 4.12205C11.6883 2.65901 11.0039 1.92749 10.1362 1.92749C9.26857 1.92749 8.58415 2.65901 7.21532 4.12205L3.63623 7.94748H4.00006C5.88565 7.94751 6.82845 7.94752 7.41422 8.53331C8 9.11909 8 9.11452 8 11.0001Z" fill="#0A0B0D"/>
    <path d="M16.1362 13.0526C16.1362 12.4089 15.7681 11.822 15.1886 11.5418L12 10V12.0526C12 13.9382 12.1362 14.8811 11.5504 15.4668C10.9647 16.0526 10.0218 16.0526 8.13623 16.0526H7.5L11.0791 19.8781C12.4479 21.3411 13.1323 22.0726 14 22.0726C14.8677 22.0726 15.5521 21.3411 16.9209 19.8781L20.5 16.0526H20.1362C18.2506 16.0526 17.3078 16.0526 16.722 15.4668C16.1362 14.881 16.1362 14.9382 16.1362 13.0526Z" fill="#0A0B0D"/>
</svg>
