<svg width="24" height="24" viewBox="0 0 24 24" fill="none" xmlns="http://www.w3.org/2000/svg">
    <path opacity="0.8" d="M9 20C11.7614 20 14 17.7614 14 15C14 12.2386 11.7614 10 9 10C6.23858 10 4 12.2386 4 15C4 17.7614 6.23858 20 9 20Z" fill="#B0B4BB"/>
    <path opacity="0.4" d="M15 14C17.7614 14 20 11.7614 20 9C20 6.23858 17.7614 4 15 4C12.2386 4 10 6.23858 10 9C10 11.7614 12.2386 14 15 14Z" fill="#B0B4BB"/>
    <path d="M4.21903 5.19883C4.05964 4.60397 4.60397 4.05964 5.19883 4.21903L8.41275 5.0802C9.00761 5.23959 9.20685 5.98316 8.77138 6.41863L6.41862 8.77139C5.98316 9.20685 5.23959 9.00761 5.0802 8.41276L4.21903 5.19883Z" fill="#0A0B0D"/>
    <path d="M20.1106 19.1309C20.27 19.7258 19.7257 20.2701 19.1308 20.1107L15.9169 19.2495C15.322 19.0901 15.1228 18.3466 15.5583 17.9111L17.911 15.5583C18.3465 15.1229 19.0901 15.3221 19.2494 15.917L20.1106 19.1309Z" fill="#0A0B0D"/>
</svg>
