<svg width="96" height="28" viewBox="0 0 96 28" fill="none" xmlns="http://www.w3.org/2000/svg">
    <path d="M0.52 1.296V27H19.672V23.4H4.732V15.624H18.196V12.024H4.732V4.896H19.06V1.296H0.52ZM21.6377 1.296V4.896H30.0617V27H34.2737V4.896H42.6977V1.296H21.6377ZM45.7661 1.296V27H49.9781V9.288H50.1221L57.6821 27H61.3181L68.8781 9.288H69.0221V27H73.2341V1.296H68.3021L59.5901 21.456H59.4461L50.6981 1.296H45.7661Z" fill="#16192C"/>
    <path d="M86.8176 0.791998C84.2976 0.791998 82.2096 1.476 80.5896 2.916C78.8616 4.356 77.9256 6.372 77.7096 8.964H81.8496C81.9936 7.416 82.4976 6.264 83.3616 5.508C84.1896 4.752 85.3416 4.392 86.8536 4.392C88.3296 4.392 89.4456 4.716 90.2016 5.364C90.8856 6.012 91.2456 6.948 91.2456 8.208C91.2456 9.468 90.8496 10.44 90.0936 11.088C89.3016 11.736 88.1496 12.06 86.6376 12.06H84.8376V15.228H86.6376C88.2936 15.228 89.5536 15.552 90.4176 16.272C91.2816 16.956 91.7496 18.036 91.7496 19.512C91.7496 20.736 91.3176 21.744 90.4896 22.572C89.5536 23.472 88.2576 23.94 86.6376 23.94C85.1616 23.94 83.9736 23.508 83.0736 22.68C82.0656 21.78 81.5616 20.484 81.4896 18.828H77.2056C77.4216 21.708 78.4296 23.94 80.2296 25.452C81.8496 26.82 84.0096 27.504 86.6736 27.504C89.4816 27.504 91.7496 26.712 93.4776 25.164C95.1336 23.652 95.9616 21.708 95.9616 19.332C95.9616 17.82 95.5296 16.56 94.6656 15.588C93.8736 14.652 92.6856 13.968 91.1736 13.5C94.0176 12.564 95.4576 10.692 95.4576 7.884C95.4576 5.652 94.6656 3.924 93.1176 2.664C91.5336 1.404 89.4096 0.791998 86.8176 0.791998Z" fill="url(#paint0_linear_321_373)"/>
    <defs>
        <linearGradient id="paint0_linear_321_373" x1="98" y1="-11" x2="58" y2="69" gradientUnits="userSpaceOnUse">
            <stop stop-color="#017BFF"/>
            <stop offset="1" stop-color="#05C8DD"/>
        </linearGradient>
    </defs>
</svg>
