<svg width="120" height="120" viewBox="0 0 120 120" fill="none" xmlns="http://www.w3.org/2000/svg">
    <rect width="120" height="120" rx="20" fill="#F1F2FF"/>
    <path d="M59.9999 66.1666V72.3333C55.0934 72.3333 50.3879 74.2824 46.9184 77.7518C43.449 81.2213 41.4999 85.9268 41.4999 90.8333H35.3333C35.3333 84.2913 37.9321 78.0172 42.558 73.3913C47.1838 68.7654 53.4579 66.1666 59.9999 66.1666ZM59.9999 63.0833C49.7787 63.0833 41.4999 54.8046 41.4999 44.5833C41.4999 34.3621 49.7787 26.0833 59.9999 26.0833C70.2212 26.0833 78.4999 34.3621 78.4999 44.5833C78.4999 54.8046 70.2212 63.0833 59.9999 63.0833ZM59.9999 56.9166C66.8141 56.9166 72.3333 51.3975 72.3333 44.5833C72.3333 37.7691 66.8141 32.25 59.9999 32.25C53.1858 32.25 47.6666 37.7691 47.6666 44.5833C47.6666 51.3975 53.1858 56.9166 59.9999 56.9166ZM78.4999 89.2916L69.438 94.0554L71.1678 83.9667L63.8387 76.8196L73.9705 75.3457L78.4999 66.1666L83.0324 75.3457L93.1612 76.8196L85.8321 83.9667L87.5588 94.0554L78.4999 89.2916Z" fill="url(#paint0_linear_143_137)"/>
    <defs>
        <linearGradient id="paint0_linear_143_137" x1="93.1612" y1="26.0833" x2="26.0673" y2="83.164" gradientUnits="userSpaceOnUse">
            <stop stop-color="#8B81FF"/>
            <stop offset="1" stop-color="#5344FF"/>
        </linearGradient>
    </defs>
</svg>
