<svg width="22" height="22" viewBox="0 0 22 22" fill="none" xmlns="http://www.w3.org/2000/svg">
    <path d="M15.3123 10.2511H11.7498V6.6886C11.7498 6.58547 11.6654 6.5011 11.5623 6.5011H10.4373C10.3342 6.5011 10.2498 6.58547 10.2498 6.6886V10.2511H6.68732C6.58419 10.2511 6.49982 10.3355 6.49982 10.4386V11.5636C6.49982 11.6667 6.58419 11.7511 6.68732 11.7511H10.2498V15.3136C10.2498 15.4167 10.3342 15.5011 10.4373 15.5011H11.5623C11.6654 15.5011 11.7498 15.4167 11.7498 15.3136V11.7511H15.3123C15.4154 11.7511 15.4998 11.6667 15.4998 11.5636V10.4386C15.4998 10.3355 15.4154 10.2511 15.3123 10.2511Z" fill="#16192C"/>
    <path d="M11 0.5C5.20156 0.5 0.5 5.20156 0.5 11C0.5 16.7984 5.20156 21.5 11 21.5C16.7984 21.5 21.5 16.7984 21.5 11C21.5 5.20156 16.7984 0.5 11 0.5ZM11 19.7188C6.18594 19.7188 2.28125 15.8141 2.28125 11C2.28125 6.18594 6.18594 2.28125 11 2.28125C15.8141 2.28125 19.7188 6.18594 19.7188 11C19.7188 15.8141 15.8141 19.7188 11 19.7188Z" fill="#16192C"/>
</svg>
