<svg width="120" height="120" viewBox="0 0 120 120" fill="none" xmlns="http://www.w3.org/2000/svg">
    <rect width="120" height="120" rx="20" fill="#FFF1FE"/>
    <path d="M40.7724 47.6667L39.8628 45.4158C39.7111 45.0403 39.6348 44.6385 39.6384 44.2335C39.6419 43.8285 39.7253 43.4281 39.8836 43.0553C40.042 42.6825 40.2722 42.3446 40.5612 42.0608C40.8502 41.777 41.1923 41.5529 41.5679 41.4013L70.1566 29.8512C70.9142 29.5455 71.7623 29.5531 72.5144 29.8722C73.2666 30.1913 73.8613 30.7959 74.168 31.5532L91.4963 74.4362C91.648 74.8117 91.7243 75.2135 91.7207 75.6185C91.7172 76.0235 91.6338 76.4239 91.4755 76.7967C91.3171 77.1695 91.0869 77.5075 90.7979 77.7913C90.5089 78.0751 90.1668 78.2991 89.7912 78.4507L61.2026 90.0008C60.827 90.1526 60.4253 90.2289 60.0202 90.2253C59.6152 90.2217 59.2148 90.1384 58.842 89.98C58.4692 89.8217 58.1313 89.5914 57.8475 89.3024C57.5637 89.0135 57.3396 88.6714 57.1881 88.2958L56.9167 87.6267V87.75H44.5834C43.7656 87.75 42.9814 87.4252 42.4031 86.8469C41.8249 86.2687 41.5001 85.4844 41.5001 84.6667V83.8342L31.1709 79.6624C30.4128 79.3558 29.8077 78.7605 29.4885 78.0077C29.1693 77.2548 29.1623 76.406 29.4689 75.6479L40.7724 47.6667ZM47.6667 81.5833H54.4778L47.6667 64.7268V81.5833ZM41.5001 62.331L36.3416 75.0991L41.5001 77.2913V62.331ZM46.7356 45.9616L61.7514 83.1281L84.6236 73.8873L69.6077 36.7239L46.7356 45.9616ZM55.9177 52.23C55.1593 52.5363 54.3102 52.5287 53.5573 52.2089C52.8045 51.8891 52.2095 51.2834 51.9032 50.5249C51.597 49.7665 51.6046 48.9174 51.9243 48.1645C52.2441 47.4117 52.8498 46.8167 53.6083 46.5104C54.3668 46.2038 55.216 46.211 55.9691 46.5305C56.7223 46.8499 57.3177 47.4555 57.6243 48.214C57.931 48.9724 57.9238 49.8217 57.6043 50.5748C57.2848 51.328 56.6793 51.9234 55.9208 52.23H55.9177Z" fill="url(#paint0_linear_143_26)"/>
    <defs>
        <linearGradient id="paint0_linear_143_26" x1="91.7209" y1="29.6273" x2="31.1509" y2="92.0751" gradientUnits="userSpaceOnUse">
            <stop offset="0.0001" stop-color="#FB55A5"/>
            <stop offset="1" stop-color="#FF99CA"/>
        </linearGradient>
    </defs>
</svg>
