<svg width="120" height="120" viewBox="0 0 120 120" fill="none" xmlns="http://www.w3.org/2000/svg">
    <rect width="120" height="120" rx="20" fill="#DEFFEE"/>
    <path d="M35.3335 63.8727V60H29.1668V53.8333H48.7922L57.5335 47.6667H68.2974L64.9335 38.4167H56.9168V32.25H69.2501L72.6171 41.5H84.6668V50.75H75.9841L80.4734 63.0895C83.8798 63.1978 87.1271 64.556 89.5963 66.9051C92.0654 69.2542 93.5836 72.4299 93.8614 75.8266C94.1392 79.2233 93.1571 82.6035 91.1024 85.3225C89.0477 88.0416 86.0642 89.9093 82.7207 90.5696C79.3772 91.2299 75.9076 90.6365 72.9736 88.9026C70.0396 87.1688 67.8463 84.4157 66.812 81.1684C65.7777 77.921 65.9747 74.4066 67.3655 71.2952C68.7563 68.1839 71.2436 65.6932 74.353 64.2982L70.542 53.8333H67.6221L62.7443 71.9325L62.7381 71.9294L62.7443 71.9479L53.7255 75.2286C54.051 77.8255 53.6354 80.4615 52.5266 82.8323C51.4179 85.203 49.6612 87.2119 47.4594 88.6268C45.2576 90.0417 42.7005 90.805 40.0834 90.8286C37.4662 90.8522 34.8958 90.1351 32.6689 88.7601C30.4419 87.3852 28.6493 85.4083 27.4979 83.058C26.3466 80.7076 25.8835 78.0795 26.1621 75.4771C26.4407 72.8748 27.4497 70.4043 29.0725 68.3509C30.6954 66.2975 32.8659 64.745 35.3335 63.8727ZM41.5001 63.1666C43.5457 63.3956 45.5148 64.0769 47.2645 65.1611C49.0143 66.2453 50.5009 67.7052 51.6165 69.435L57.6506 67.2366L61.2427 53.8333H59.5561L50.7501 60H41.5001V63.1666ZM39.9585 84.6667C42.0028 84.6667 43.9635 83.8545 45.4091 82.4089C46.8547 80.9634 47.6668 79.0027 47.6668 76.9583C47.6668 74.914 46.8547 72.9533 45.4091 71.5077C43.9635 70.0621 42.0028 69.25 39.9585 69.25C37.9141 69.25 35.9534 70.0621 34.5078 71.5077C33.0622 72.9533 32.2501 74.914 32.2501 76.9583C32.2501 79.0027 33.0622 80.9634 34.5078 82.4089C35.9534 83.8545 37.9141 84.6667 39.9585 84.6667ZM80.0418 84.6667C82.0862 84.6667 84.0468 83.8545 85.4924 82.4089C86.938 80.9634 87.7501 79.0027 87.7501 76.9583C87.7501 74.914 86.938 72.9533 85.4924 71.5077C84.0468 70.0621 82.0862 69.25 80.0418 69.25C77.9974 69.25 76.0368 70.0621 74.5912 71.5077C73.1456 72.9533 72.3335 74.914 72.3335 76.9583C72.3335 79.0027 73.1456 80.9634 74.5912 82.4089C76.0368 83.8545 77.9974 84.6667 80.0418 84.6667Z" fill="url(#paint0_linear_143_115)"/>
    <defs>
        <linearGradient id="paint0_linear_143_115" x1="89.9512" y1="35.6673" x2="38.4094" y2="96.4556" gradientUnits="userSpaceOnUse">
            <stop offset="0.0260417" stop-color="#05C8DD"/>
            <stop offset="1" stop-color="#96F5FF"/>
        </linearGradient>
    </defs>
</svg>
