<svg width="120" height="120" viewBox="0 0 120 120" fill="none" xmlns="http://www.w3.org/2000/svg">
    <rect width="120" height="120" rx="20" fill="#FFF7E3"/>
    <path d="M56.9167 32.25C58.6187 32.25 60 33.6313 60 35.3333V41.5H75.4167C77.1187 41.5 78.5 42.8813 78.5 44.5833V60H84.6667C86.3687 60 87.75 61.3813 87.75 63.0833V84.6667C87.75 86.3687 86.3687 87.75 84.6667 87.75H63.0833C61.3813 87.75 60 86.3687 60 84.6667V78.5H44.5833C42.8813 78.5 41.5 77.1187 41.5 75.4167V60H35.3333C33.6313 60 32.25 58.6187 32.25 56.9167V35.3333C32.25 33.6313 33.6313 32.25 35.3333 32.25H56.9167ZM72.3333 47.6667H47.6667V72.3333H72.3333V47.6667Z" fill="url(#paint0_linear_143_161)"/>
    <defs>
        <linearGradient id="paint0_linear_143_161" x1="87.75" y1="32.25" x2="32.25" y2="87.75" gradientUnits="userSpaceOnUse">
            <stop stop-color="#FF6E30"/>
            <stop offset="1" stop-color="#FFB296"/>
        </linearGradient>
    </defs>
</svg>
