<svg width="603" height="329" viewBox="0 0 603 329" fill="none" xmlns="http://www.w3.org/2000/svg">
    <path d="M165.639 134.425H227.544" stroke="url(#paint0_linear_0_1)" stroke-width="2" stroke-linecap="round"/>
    <circle cx="165.026" cy="134.425" r="4.40332" fill="url(#paint1_linear_0_1)" stroke="url(#paint2_linear_0_1)"/>
    <g filter="url(#filter0_dd_0_1)">
        <path fill-rule="evenodd" clip-rule="evenodd" d="M362.195 222.391L238.868 153.996C223.769 145.622 223.769 123.843 238.868 115.469L362.195 47.0734C368.796 43.4112 376.812 43.4112 383.414 47.0734L506.741 115.469C521.84 123.843 521.84 145.622 506.741 153.996L383.414 222.391C376.812 226.052 368.796 226.052 362.195 222.391Z" fill="#F4F5F6" stroke="url(#paint3_linear_0_1)" stroke-width="4.66667" stroke-miterlimit="8"/>
        <path fill-rule="evenodd" clip-rule="evenodd" d="M366.23 185.832L293.379 145.723C284.46 140.812 284.46 128.039 293.379 123.129L366.23 83.0189C370.131 80.8713 374.865 80.8713 378.765 83.0189L451.616 123.129C460.536 128.039 460.536 140.812 451.616 145.723L378.765 185.832C374.865 187.979 370.131 187.979 366.23 185.832Z" fill="white"/>
    </g>
    <path d="M0.653672 146L7.91767 122.96H13.5657L20.8297 146H16.8617L10.2697 125.328H11.1337L4.62167 146H0.653672ZM4.70167 141.008V137.408H16.7977V141.008H4.70167ZM23.7224 146V128.72H27.1304V132.928L26.7144 132.384C26.9278 131.808 27.2104 131.285 27.5624 130.816C27.9251 130.336 28.3571 129.941 28.8584 129.632C29.2851 129.344 29.7544 129.12 30.2664 128.96C30.7891 128.789 31.3224 128.688 31.8664 128.656C32.4104 128.613 32.9384 128.635 33.4504 128.72V132.32C32.9384 132.171 32.3464 132.123 31.6744 132.176C31.0131 132.229 30.4158 132.416 29.8824 132.736C29.3491 133.024 28.9118 133.392 28.5704 133.84C28.2398 134.288 27.9944 134.8 27.8344 135.376C27.6744 135.941 27.5944 136.555 27.5944 137.216V146H23.7224ZM43.6952 146.48C41.9138 146.48 40.3938 146.085 39.1352 145.296C37.8765 144.496 36.9112 143.408 36.2392 142.032C35.5778 140.656 35.2418 139.099 35.2312 137.36C35.2418 135.589 35.5885 134.021 36.2712 132.656C36.9645 131.28 37.9458 130.203 39.2152 129.424C40.4845 128.635 41.9938 128.24 43.7432 128.24C45.7058 128.24 47.3645 128.736 48.7192 129.728C50.0845 130.709 50.9752 132.053 51.3912 133.76L47.5512 134.8C47.2525 133.872 46.7565 133.152 46.0632 132.64C45.3698 132.117 44.5805 131.856 43.6952 131.856C42.6925 131.856 41.8658 132.096 41.2152 132.576C40.5645 133.045 40.0845 133.696 39.7752 134.528C39.4658 135.36 39.3112 136.304 39.3112 137.36C39.3112 139.003 39.6792 140.331 40.4152 141.344C41.1512 142.357 42.2445 142.864 43.6952 142.864C44.7192 142.864 45.5245 142.629 46.1112 142.16C46.7085 141.691 47.1565 141.013 47.4552 140.128L51.3912 141.008C50.8578 142.768 49.9245 144.123 48.5912 145.072C47.2578 146.011 45.6258 146.48 43.6952 146.48ZM66.5494 146V137.68C66.5494 137.136 66.5121 136.533 66.4374 135.872C66.3628 135.211 66.1868 134.576 65.9094 133.968C65.6428 133.349 65.2374 132.843 64.6934 132.448C64.1601 132.053 63.4348 131.856 62.5174 131.856C62.0268 131.856 61.5414 131.936 61.0614 132.096C60.5814 132.256 60.1441 132.533 59.7494 132.928C59.3654 133.312 59.0561 133.845 58.8214 134.528C58.5868 135.2 58.4694 136.064 58.4694 137.12L56.1814 136.144C56.1814 134.672 56.4641 133.339 57.0294 132.144C57.6054 130.949 58.4481 130 59.5574 129.296C60.6668 128.581 62.0321 128.224 63.6534 128.224C64.9334 128.224 65.9894 128.437 66.8214 128.864C67.6534 129.291 68.3148 129.835 68.8054 130.496C69.2961 131.157 69.6588 131.861 69.8934 132.608C70.1281 133.355 70.2774 134.064 70.3414 134.736C70.4161 135.397 70.4534 135.936 70.4534 136.352V146H66.5494ZM54.5654 146V122.96H58.0054V135.088H58.4694V146H54.5654ZM82.4847 146.48C80.7353 146.48 79.1993 146.101 77.8767 145.344C76.554 144.587 75.5193 143.536 74.7727 142.192C74.0367 140.848 73.6687 139.301 73.6687 137.552C73.6687 135.664 74.0313 134.027 74.7567 132.64C75.482 131.243 76.49 130.16 77.7807 129.392C79.0713 128.624 80.5647 128.24 82.2607 128.24C84.0527 128.24 85.5727 128.661 86.8207 129.504C88.0793 130.336 89.0127 131.515 89.6207 133.04C90.2287 134.565 90.458 136.363 90.3087 138.432H86.4847V137.024C86.474 135.147 86.1433 133.776 85.4927 132.912C84.842 132.048 83.818 131.616 82.4207 131.616C80.842 131.616 79.6687 132.107 78.9007 133.088C78.1327 134.059 77.7487 135.483 77.7487 137.36C77.7487 139.109 78.1327 140.464 78.9007 141.424C79.6687 142.384 80.7887 142.864 82.2607 142.864C83.21 142.864 84.026 142.656 84.7087 142.24C85.402 141.813 85.9353 141.2 86.3087 140.4L90.1167 141.552C89.4553 143.109 88.4313 144.32 87.0447 145.184C85.6687 146.048 84.1487 146.48 82.4847 146.48ZM76.5327 138.432V135.52H88.4207V138.432H76.5327ZM98.3982 146.48C97.1502 146.48 96.0942 146.245 95.2302 145.776C94.3662 145.296 93.7102 144.661 93.2622 143.872C92.8248 143.083 92.6062 142.213 92.6062 141.264C92.6062 140.432 92.7448 139.685 93.0222 139.024C93.2995 138.352 93.7262 137.776 94.3022 137.296C94.8782 136.805 95.6248 136.405 96.5422 136.096C97.2355 135.872 98.0462 135.669 98.9742 135.488C99.9128 135.307 100.926 135.141 102.014 134.992C103.113 134.832 104.26 134.661 105.454 134.48L104.078 135.264C104.089 134.069 103.822 133.189 103.278 132.624C102.734 132.059 101.817 131.776 100.526 131.776C99.7475 131.776 98.9955 131.957 98.2702 132.32C97.5448 132.683 97.0382 133.307 96.7502 134.192L93.2302 133.088C93.6568 131.627 94.4675 130.453 95.6622 129.568C96.8675 128.683 98.4888 128.24 100.526 128.24C102.062 128.24 103.412 128.491 104.574 128.992C105.748 129.493 106.617 130.315 107.182 131.456C107.492 132.064 107.678 132.688 107.742 133.328C107.806 133.957 107.838 134.645 107.838 135.392V146H104.462V142.256L105.022 142.864C104.244 144.112 103.332 145.029 102.286 145.616C101.252 146.192 99.9555 146.48 98.3982 146.48ZM99.1662 143.408C100.041 143.408 100.788 143.253 101.406 142.944C102.025 142.635 102.516 142.256 102.878 141.808C103.252 141.36 103.502 140.939 103.63 140.544C103.833 140.053 103.945 139.493 103.966 138.864C103.998 138.224 104.014 137.707 104.014 137.312L105.198 137.664C104.036 137.845 103.038 138.005 102.206 138.144C101.374 138.283 100.66 138.416 100.062 138.544C99.4648 138.661 98.9368 138.795 98.4782 138.944C98.0302 139.104 97.6515 139.291 97.3422 139.504C97.0328 139.717 96.7928 139.963 96.6222 140.24C96.4622 140.517 96.3822 140.843 96.3822 141.216C96.3822 141.643 96.4888 142.021 96.7022 142.352C96.9155 142.672 97.2248 142.928 97.6302 143.12C98.0462 143.312 98.5582 143.408 99.1662 143.408ZM123.956 146V137.68C123.956 137.136 123.918 136.533 123.844 135.872C123.769 135.211 123.593 134.576 123.316 133.968C123.049 133.349 122.644 132.843 122.1 132.448C121.566 132.053 120.841 131.856 119.924 131.856C119.433 131.856 118.948 131.936 118.468 132.096C117.988 132.256 117.55 132.533 117.156 132.928C116.772 133.312 116.462 133.845 116.228 134.528C115.993 135.2 115.876 136.064 115.876 137.12L113.588 136.144C113.588 134.672 113.87 133.339 114.436 132.144C115.012 130.949 115.854 130 116.964 129.296C118.073 128.581 119.438 128.224 121.06 128.224C122.34 128.224 123.396 128.437 124.228 128.864C125.06 129.291 125.721 129.835 126.212 130.496C126.702 131.157 127.065 131.861 127.3 132.608C127.534 133.355 127.684 134.064 127.748 134.736C127.822 135.397 127.86 135.936 127.86 136.352V146H123.956ZM111.972 146V128.72H115.412V134.08H115.876V146H111.972Z" fill="url(#paint4_linear_0_1)"/>
    <g opacity="0.3" filter="url(#filter1_f_0_1)">
        <circle cx="508.585" cy="163.572" r="24.1903" fill="url(#paint5_linear_0_1)"/>
    </g>
    <path d="M527.644 105.46C523.023 102.81 517.343 102.81 512.722 105.46L494.4 115.965C489.738 118.638 486.862 123.603 486.862 128.978V149.784C486.862 155.16 489.737 160.124 494.4 162.797L512.722 173.302C517.343 175.952 523.023 175.952 527.644 173.302L545.966 162.797C550.629 160.124 553.505 155.159 553.505 149.784V128.978C553.505 123.603 550.629 118.638 545.966 115.965L527.644 105.46Z" stroke="url(#paint6_linear_0_1)" stroke-width="4"/>
    <path d="M526.638 112.548C522.639 110.26 517.728 110.26 513.729 112.548L500.047 120.374C495.999 122.69 493.502 126.996 493.502 131.659V147.103C493.502 151.766 495.999 156.072 500.047 158.388L513.728 166.214C517.728 168.502 522.639 168.502 526.638 166.214L540.32 158.388C544.368 156.072 546.865 151.766 546.865 147.103V131.659C546.865 126.996 544.368 122.69 540.32 120.374L526.638 112.548Z" fill="url(#paint7_linear_0_1)"/>
    <path d="M521.758 144.724V146.564H525.585V148.403H516.019V146.564H519.845V144.724H512.185C512.059 144.723 511.935 144.699 511.819 144.652C511.704 144.605 511.599 144.536 511.51 144.45C511.422 144.364 511.353 144.262 511.306 144.15C511.258 144.038 511.235 143.919 511.236 143.798V131.853C511.236 131.342 511.671 130.927 512.185 130.927H529.419C529.943 130.927 530.368 131.34 530.368 131.853V143.798C530.368 144.309 529.932 144.724 529.419 144.724H521.758V144.724Z" fill="white"/>
    <defs>
        <filter id="filter0_dd_0_1" x="159.21" y="0.993469" width="437.188" height="327.476" filterUnits="userSpaceOnUse" color-interpolation-filters="sRGB">
            <feFlood flood-opacity="0" result="BackgroundImageFix"/>
            <feColorMatrix in="SourceAlpha" type="matrix" values="0 0 0 0 0 0 0 0 0 0 0 0 0 0 0 0 0 0 127 0" result="hardAlpha"/>
            <feOffset dx="5" dy="30"/>
            <feGaussianBlur stdDeviation="35.5"/>
            <feColorMatrix type="matrix" values="0 0 0 0 0.0784314 0 0 0 0 0.145098 0 0 0 0 0.247059 0 0 0 0.08 0"/>
            <feBlend mode="normal" in2="BackgroundImageFix" result="effect1_dropShadow_0_1"/>
            <feColorMatrix in="SourceAlpha" type="matrix" values="0 0 0 0 0 0 0 0 0 0 0 0 0 0 0 0 0 0 127 0" result="hardAlpha"/>
            <feOffset/>
            <feGaussianBlur stdDeviation="0.5"/>
            <feColorMatrix type="matrix" values="0 0 0 0 0.0470588 0 0 0 0 0.101961 0 0 0 0 0.294118 0 0 0 0.1 0"/>
            <feBlend mode="normal" in2="effect1_dropShadow_0_1" result="effect2_dropShadow_0_1"/>
            <feBlend mode="normal" in="SourceGraphic" in2="effect2_dropShadow_0_1" result="shape"/>
        </filter>
        <filter id="filter1_f_0_1" x="414.395" y="69.3813" width="188.381" height="188.381" filterUnits="userSpaceOnUse" color-interpolation-filters="sRGB">
            <feFlood flood-opacity="0" result="BackgroundImageFix"/>
            <feBlend mode="normal" in="SourceGraphic" in2="BackgroundImageFix" result="shape"/>
            <feGaussianBlur stdDeviation="35" result="effect1_foregroundBlur_0_1"/>
        </filter>
        <linearGradient id="paint0_linear_0_1" x1="227.544" y1="134.425" x2="227.511" y2="136.425" gradientUnits="userSpaceOnUse">
            <stop stop-color="#8B81FF"/>
            <stop offset="1" stop-color="#5344FF"/>
        </linearGradient>
        <linearGradient id="paint1_linear_0_1" x1="169.93" y1="129.522" x2="160.123" y2="139.329" gradientUnits="userSpaceOnUse">
            <stop stop-color="#8B81FF"/>
            <stop offset="1" stop-color="#5344FF"/>
        </linearGradient>
        <linearGradient id="paint2_linear_0_1" x1="169.93" y1="129.522" x2="160.123" y2="139.329" gradientUnits="userSpaceOnUse">
            <stop stop-color="#8B81FF"/>
            <stop offset="1" stop-color="#5344FF"/>
        </linearGradient>
        <linearGradient id="paint3_linear_0_1" x1="518.065" y1="44.3268" x2="355.842" y2="304.985" gradientUnits="userSpaceOnUse">
            <stop stop-color="#8B81FF"/>
            <stop offset="1" stop-color="#5344FF"/>
        </linearGradient>
        <linearGradient id="paint4_linear_0_1" x1="129.795" y1="112" x2="103.072" y2="190.955" gradientUnits="userSpaceOnUse">
            <stop stop-color="#8B81FF"/>
            <stop offset="1" stop-color="#5344FF"/>
        </linearGradient>
        <linearGradient id="paint5_linear_0_1" x1="532.775" y1="139.381" x2="484.395" y2="187.762" gradientUnits="userSpaceOnUse">
            <stop stop-color="#8B81FF"/>
            <stop offset="1" stop-color="#5344FF"/>
        </linearGradient>
        <linearGradient id="paint6_linear_0_1" x1="479.397" y1="98.8763" x2="560.405" y2="180.446" gradientUnits="userSpaceOnUse">
            <stop stop-color="#8B81FF"/>
            <stop offset="1" stop-color="#5344FF"/>
        </linearGradient>
        <linearGradient id="paint7_linear_0_1" x1="489.374" y1="108.856" x2="550.422" y2="170.472" gradientUnits="userSpaceOnUse">
            <stop stop-color="#8B81FF"/>
            <stop offset="1" stop-color="#5344FF"/>
        </linearGradient>
    </defs>
</svg>
