<svg width="624" height="328" viewBox="0 0 624 328" fill="none" xmlns="http://www.w3.org/2000/svg">
    <path d="M460.42 133.589H398.516" stroke="url(#paint0_linear_0_1)" stroke-width="2" stroke-linecap="round"/>
    <circle r="4.90332" transform="matrix(-1 0 0 1 461.033 133.589)" fill="url(#paint1_linear_0_1)"/>
    <g filter="url(#filter0_dd_0_1)">
        <path fill-rule="evenodd" clip-rule="evenodd" d="M242.645 221.554L119.319 153.159C104.219 144.786 104.219 123.006 119.319 114.633L242.645 46.2369C249.247 42.5747 257.263 42.5747 263.865 46.2369L387.192 114.633C402.291 123.006 402.291 144.786 387.192 153.159L263.865 221.554C257.263 225.215 249.247 225.215 242.645 221.554Z" fill="#F4F5F6" stroke="url(#paint2_linear_0_1)" stroke-width="4.66667" stroke-miterlimit="8"/>
        <path fill-rule="evenodd" clip-rule="evenodd" d="M246.681 184.996L173.83 144.886C164.911 139.975 164.911 127.203 173.83 122.292L246.681 82.1825C250.581 80.0348 255.315 80.0348 259.216 82.1825L332.067 122.292C340.986 127.203 340.986 139.975 332.067 144.886L259.216 184.996C255.315 187.143 250.581 187.143 246.681 184.996Z" fill="white"/>
    </g>
    <path d="M508.515 146V122.96H512.371V132.656H523.283V122.96H527.123V146H523.283V136.272H512.371V146H508.515ZM536.441 146.48C535.193 146.48 534.137 146.245 533.273 145.776C532.409 145.296 531.753 144.661 531.305 143.872C530.868 143.083 530.649 142.213 530.649 141.264C530.649 140.432 530.788 139.685 531.065 139.024C531.342 138.352 531.769 137.776 532.345 137.296C532.921 136.805 533.668 136.405 534.585 136.096C535.278 135.872 536.089 135.669 537.017 135.488C537.956 135.307 538.969 135.141 540.057 134.992C541.156 134.832 542.302 134.661 543.497 134.48L542.121 135.264C542.132 134.069 541.865 133.189 541.321 132.624C540.777 132.059 539.86 131.776 538.569 131.776C537.79 131.776 537.038 131.957 536.313 132.32C535.588 132.683 535.081 133.307 534.793 134.192L531.273 133.088C531.7 131.627 532.51 130.453 533.705 129.568C534.91 128.683 536.532 128.24 538.569 128.24C540.105 128.24 541.454 128.491 542.617 128.992C543.79 129.493 544.66 130.315 545.225 131.456C545.534 132.064 545.721 132.688 545.785 133.328C545.849 133.957 545.881 134.645 545.881 135.392V146H542.505V142.256L543.065 142.864C542.286 144.112 541.374 145.029 540.329 145.616C539.294 146.192 537.998 146.48 536.441 146.48ZM537.209 143.408C538.084 143.408 538.83 143.253 539.449 142.944C540.068 142.635 540.558 142.256 540.921 141.808C541.294 141.36 541.545 140.939 541.673 140.544C541.876 140.053 541.988 139.493 542.009 138.864C542.041 138.224 542.057 137.707 542.057 137.312L543.241 137.664C542.078 137.845 541.081 138.005 540.249 138.144C539.417 138.283 538.702 138.416 538.105 138.544C537.508 138.661 536.98 138.795 536.521 138.944C536.073 139.104 535.694 139.291 535.385 139.504C535.076 139.717 534.836 139.963 534.665 140.24C534.505 140.517 534.425 140.843 534.425 141.216C534.425 141.643 534.532 142.021 534.745 142.352C534.958 142.672 535.268 142.928 535.673 143.12C536.089 143.312 536.601 143.408 537.209 143.408ZM556.975 146.48C555.385 146.48 553.999 146.08 552.815 145.28C551.631 144.48 550.713 143.392 550.063 142.016C549.412 140.64 549.087 139.088 549.087 137.36C549.087 135.611 549.412 134.053 550.063 132.688C550.724 131.312 551.657 130.229 552.863 129.44C554.068 128.64 555.487 128.24 557.119 128.24C558.761 128.24 560.137 128.64 561.247 129.44C562.367 130.229 563.215 131.312 563.791 132.688C564.367 134.064 564.655 135.621 564.655 137.36C564.655 139.077 564.367 140.629 563.791 142.016C563.215 143.392 562.356 144.48 561.215 145.28C560.073 146.08 558.66 146.48 556.975 146.48ZM557.567 143.024C558.601 143.024 559.433 142.789 560.063 142.32C560.703 141.84 561.167 141.173 561.455 140.32C561.753 139.467 561.903 138.48 561.903 137.36C561.903 136.229 561.753 135.243 561.455 134.4C561.167 133.547 560.713 132.885 560.095 132.416C559.476 131.936 558.676 131.696 557.695 131.696C556.66 131.696 555.807 131.952 555.135 132.464C554.463 132.965 553.967 133.648 553.647 134.512C553.327 135.365 553.167 136.315 553.167 137.36C553.167 138.416 553.321 139.376 553.631 140.24C553.951 141.093 554.436 141.771 555.087 142.272C555.737 142.773 556.564 143.024 557.567 143.024ZM561.903 146V133.872H561.423V122.96H565.311V146H561.903ZM577.653 146.48C575.903 146.48 574.367 146.101 573.045 145.344C571.722 144.587 570.687 143.536 569.941 142.192C569.205 140.848 568.837 139.301 568.837 137.552C568.837 135.664 569.199 134.027 569.925 132.64C570.65 131.243 571.658 130.16 572.949 129.392C574.239 128.624 575.733 128.24 577.429 128.24C579.221 128.24 580.741 128.661 581.989 129.504C583.247 130.336 584.181 131.515 584.789 133.04C585.397 134.565 585.626 136.363 585.477 138.432H581.653V137.024C581.642 135.147 581.311 133.776 580.661 132.912C580.01 132.048 578.986 131.616 577.589 131.616C576.01 131.616 574.837 132.107 574.069 133.088C573.301 134.059 572.917 135.483 572.917 137.36C572.917 139.109 573.301 140.464 574.069 141.424C574.837 142.384 575.957 142.864 577.429 142.864C578.378 142.864 579.194 142.656 579.877 142.24C580.57 141.813 581.103 141.2 581.477 140.4L585.285 141.552C584.623 143.109 583.599 144.32 582.213 145.184C580.837 146.048 579.317 146.48 577.653 146.48ZM571.701 138.432V135.52H583.589V138.432H571.701ZM593.566 146.48C592.318 146.48 591.262 146.245 590.398 145.776C589.534 145.296 588.878 144.661 588.43 143.872C587.993 143.083 587.774 142.213 587.774 141.264C587.774 140.432 587.913 139.685 588.19 139.024C588.467 138.352 588.894 137.776 589.47 137.296C590.046 136.805 590.793 136.405 591.71 136.096C592.403 135.872 593.214 135.669 594.142 135.488C595.081 135.307 596.094 135.141 597.182 134.992C598.281 134.832 599.427 134.661 600.622 134.48L599.246 135.264C599.257 134.069 598.99 133.189 598.446 132.624C597.902 132.059 596.985 131.776 595.694 131.776C594.915 131.776 594.163 131.957 593.438 132.32C592.713 132.683 592.206 133.307 591.918 134.192L588.398 133.088C588.825 131.627 589.635 130.453 590.83 129.568C592.035 128.683 593.657 128.24 595.694 128.24C597.23 128.24 598.579 128.491 599.742 128.992C600.915 129.493 601.785 130.315 602.35 131.456C602.659 132.064 602.846 132.688 602.91 133.328C602.974 133.957 603.006 134.645 603.006 135.392V146H599.63V142.256L600.19 142.864C599.411 144.112 598.499 145.029 597.454 145.616C596.419 146.192 595.123 146.48 593.566 146.48ZM594.334 143.408C595.209 143.408 595.955 143.253 596.574 142.944C597.193 142.635 597.683 142.256 598.046 141.808C598.419 141.36 598.67 140.939 598.798 140.544C599.001 140.053 599.113 139.493 599.134 138.864C599.166 138.224 599.182 137.707 599.182 137.312L600.366 137.664C599.203 137.845 598.206 138.005 597.374 138.144C596.542 138.283 595.827 138.416 595.23 138.544C594.633 138.661 594.105 138.795 593.646 138.944C593.198 139.104 592.819 139.291 592.51 139.504C592.201 139.717 591.961 139.963 591.79 140.24C591.63 140.517 591.55 140.843 591.55 141.216C591.55 141.643 591.657 142.021 591.87 142.352C592.083 142.672 592.393 142.928 592.798 143.12C593.214 143.312 593.726 143.408 594.334 143.408ZM619.124 146V137.68C619.124 137.136 619.086 136.533 619.012 135.872C618.937 135.211 618.761 134.576 618.484 133.968C618.217 133.349 617.812 132.843 617.268 132.448C616.734 132.053 616.009 131.856 615.092 131.856C614.601 131.856 614.116 131.936 613.636 132.096C613.156 132.256 612.718 132.533 612.324 132.928C611.94 133.312 611.63 133.845 611.396 134.528C611.161 135.2 611.044 136.064 611.044 137.12L608.756 136.144C608.756 134.672 609.038 133.339 609.604 132.144C610.18 130.949 611.022 130 612.132 129.296C613.241 128.581 614.606 128.224 616.228 128.224C617.508 128.224 618.564 128.437 619.396 128.864C620.228 129.291 620.889 129.835 621.38 130.496C621.87 131.157 622.233 131.861 622.468 132.608C622.702 133.355 622.852 134.064 622.916 134.736C622.99 135.397 623.028 135.936 623.028 136.352V146H619.124ZM607.14 146V128.72H610.58V134.08H611.044V146H607.14Z" fill="url(#paint3_linear_0_1)"/>
    <g opacity="0.3" filter="url(#filter1_f_0_1)">
        <circle cx="94.8905" cy="153.541" r="24.1903" fill="url(#paint4_linear_0_1)"/>
    </g>
    <path d="M113.95 95.4292C109.329 92.7796 103.649 92.7796 99.0278 95.4292L80.7061 105.934C76.0432 108.608 73.1672 113.572 73.1672 118.947L73.1672 139.754C73.1672 145.129 76.0432 150.093 80.7061 152.767L99.0278 163.272C103.649 165.922 109.329 165.922 113.95 163.272L132.272 152.767C136.935 150.093 139.811 145.129 139.811 139.754V118.947C139.811 113.572 136.935 108.608 132.272 105.934L113.95 95.4292Z" stroke="url(#paint5_linear_0_1)" stroke-width="4"/>
    <path d="M112.944 102.518C108.945 100.23 104.033 100.23 100.034 102.518L86.3523 110.344C82.3047 112.659 79.8072 116.965 79.8072 121.628V137.073C79.8072 141.736 82.3047 146.042 86.3523 148.357L100.034 156.184C104.033 158.471 108.945 158.471 112.944 156.184L126.626 148.357C130.673 146.042 133.171 141.736 133.171 137.073V121.628C133.171 116.965 130.673 112.659 126.626 110.344L112.944 102.518Z" fill="url(#paint6_linear_0_1)"/>
    <path d="M107.494 135.035V136.875H111.173V138.714H101.975V136.875H105.654V135.035H98.2887C98.1679 135.035 98.0485 135.01 97.9372 134.963C97.8259 134.916 97.725 134.848 97.6402 134.762C97.5555 134.676 97.4885 134.574 97.4432 134.462C97.3979 134.35 97.3752 134.23 97.3763 134.109V122.165C97.3763 121.653 97.7948 121.238 98.2887 121.238H114.86C115.364 121.238 115.772 121.651 115.772 122.165V134.109C115.772 134.62 115.354 135.035 114.86 135.035H107.494V135.035Z" fill="white"/>
    <defs>
        <filter id="filter0_dd_0_1" x="39.6609" y="0.156921" width="437.188" height="327.476" filterUnits="userSpaceOnUse" color-interpolation-filters="sRGB">
            <feFlood flood-opacity="0" result="BackgroundImageFix"/>
            <feColorMatrix in="SourceAlpha" type="matrix" values="0 0 0 0 0 0 0 0 0 0 0 0 0 0 0 0 0 0 127 0" result="hardAlpha"/>
            <feOffset dx="5" dy="30"/>
            <feGaussianBlur stdDeviation="35.5"/>
            <feColorMatrix type="matrix" values="0 0 0 0 0.0784314 0 0 0 0 0.145098 0 0 0 0 0.247059 0 0 0 0.08 0"/>
            <feBlend mode="normal" in2="BackgroundImageFix" result="effect1_dropShadow_0_1"/>
            <feColorMatrix in="SourceAlpha" type="matrix" values="0 0 0 0 0 0 0 0 0 0 0 0 0 0 0 0 0 0 127 0" result="hardAlpha"/>
            <feOffset/>
            <feGaussianBlur stdDeviation="0.5"/>
            <feColorMatrix type="matrix" values="0 0 0 0 0.0470588 0 0 0 0 0.101961 0 0 0 0 0.294118 0 0 0 0.1 0"/>
            <feBlend mode="normal" in2="effect1_dropShadow_0_1" result="effect2_dropShadow_0_1"/>
            <feBlend mode="normal" in="SourceGraphic" in2="effect2_dropShadow_0_1" result="shape"/>
        </filter>
        <filter id="filter1_f_0_1" x="0.700195" y="59.3509" width="188.381" height="188.381" filterUnits="userSpaceOnUse" color-interpolation-filters="sRGB">
            <feFlood flood-opacity="0" result="BackgroundImageFix"/>
            <feBlend mode="normal" in="SourceGraphic" in2="BackgroundImageFix" result="shape"/>
            <feGaussianBlur stdDeviation="35" result="effect1_foregroundBlur_0_1"/>
        </filter>
        <linearGradient id="paint0_linear_0_1" x1="398.516" y1="133.589" x2="398.548" y2="135.588" gradientUnits="userSpaceOnUse">
            <stop stop-color="#FF3366"/>
            <stop offset="1" stop-color="#FF789A"/>
        </linearGradient>
        <linearGradient id="paint1_linear_0_1" x1="9.80663" y1="0" x2="0" y2="9.80663" gradientUnits="userSpaceOnUse">
            <stop stop-color="#FF3366"/>
            <stop offset="1" stop-color="#FF789A"/>
        </linearGradient>
        <linearGradient id="paint2_linear_0_1" x1="398.516" y1="43.4902" x2="236.292" y2="304.148" gradientUnits="userSpaceOnUse">
            <stop stop-color="#FF3366"/>
            <stop offset="1" stop-color="#FF789A"/>
        </linearGradient>
        <linearGradient id="paint3_linear_0_1" x1="625.275" y1="112" x2="596.651" y2="189.416" gradientUnits="userSpaceOnUse">
            <stop stop-color="#FF3366"/>
            <stop offset="1" stop-color="#FF789A"/>
        </linearGradient>
        <linearGradient id="paint4_linear_0_1" x1="119.081" y1="129.351" x2="70.7002" y2="177.732" gradientUnits="userSpaceOnUse">
            <stop stop-color="#FF3366"/>
            <stop offset="1" stop-color="#FF789A"/>
        </linearGradient>
        <linearGradient id="paint5_linear_0_1" x1="65.7029" y1="88.8458" x2="146.71" y2="170.416" gradientUnits="userSpaceOnUse">
            <stop stop-color="#FF3366"/>
            <stop offset="1" stop-color="#FF789A"/>
        </linearGradient>
        <linearGradient id="paint6_linear_0_1" x1="75.6795" y1="98.8253" x2="136.727" y2="160.442" gradientUnits="userSpaceOnUse">
            <stop stop-color="#FF3366"/>
            <stop offset="1" stop-color="#FF789A"/>
        </linearGradient>
    </defs>
</svg>
