<svg width="24" height="24" viewBox="0 0 24 24" fill="none" xmlns="http://www.w3.org/2000/svg">
    <rect x="2" y="2" width="20" height="20" rx="5" fill="#C0C3C9"/>
    <path d="M13 18C9.6862 18 7 15.3138 7 12C7 8.6862 9.6862 6 13 6C16.3138 6 19 8.6862 19 12C19 15.3138 16.3138 18 13 18ZM12.4 12.4752V14.4H13.6V12.4752C13.9158 12.3374 14.1746 12.095 14.3327 11.7888C14.4909 11.4826 14.5388 11.1313 14.4684 10.794C14.398 10.4566 14.2135 10.1538 13.9461 9.93645C13.6787 9.71908 13.3446 9.60043 13 9.60043C12.6554 9.60043 12.3213 9.71908 12.0539 9.93645C11.7865 10.1538 11.602 10.4566 11.5316 10.794C11.4612 11.1313 11.5091 11.4826 11.6673 11.7888C11.8254 12.095 12.0842 12.3374 12.4 12.4752Z" fill="#52555D"/>
    <rect x="2" y="8" width="2" height="8" fill="#52555D"/>
</svg>
