<svg width="24" height="24" viewBox="0 0 24 24" fill="none" xmlns="http://www.w3.org/2000/svg">
    <path fill-rule="evenodd" clip-rule="evenodd" d="M15 9V7C15 5.34315 13.6569 4 12 4C10.3431 4 9 5.34315 9 7V9H7V7C7 4.23858 9.23858 2 12 2C14.7614 2 17 4.23858 17 7V9H15Z" fill="#F4F5F6"/>
    <path opacity="0.4" fill-rule="evenodd" clip-rule="evenodd" d="M6 9C4.34315 9 3 10.3431 3 12V19C3 20.6569 4.34315 22 6 22H18C19.6569 22 21 20.6569 21 19V12C21 10.3431 19.6569 9 18 9H6Z" fill="#F4F5F6"/>
    <path d="M5.385 17V13.475H7.73V13.985H6V14.955H7.62V15.465H6V16.49H7.73V17H5.385ZM9.19398 17V14.01H7.98398V13.475H11.044V14.01H9.83398V17H9.19398ZM11.4595 17V13.475H11.9945L13.2445 15.78L14.4895 13.475H15.0145V17H14.4345V14.625L13.4245 16.465H13.0495L12.0395 14.635V17H11.4595ZM16.8353 17.05C16.5953 17.05 16.3653 17.015 16.1453 16.945C15.9286 16.8717 15.7486 16.7733 15.6053 16.65L15.8153 16.16C16.1153 16.3933 16.4486 16.51 16.8153 16.51C17.2653 16.51 17.4903 16.3333 17.4903 15.98C17.4903 15.8133 17.4336 15.69 17.3203 15.61C17.2103 15.5267 17.0486 15.485 16.8353 15.485H16.2703V14.955H16.7753C16.9619 14.955 17.1103 14.91 17.2203 14.82C17.3303 14.7267 17.3853 14.5983 17.3853 14.435C17.3853 14.2817 17.3336 14.165 17.2303 14.085C17.1303 14.005 16.9836 13.965 16.7903 13.965C16.4436 13.965 16.1386 14.085 15.8753 14.325L15.6653 13.845C15.8053 13.7117 15.9803 13.6083 16.1903 13.535C16.4003 13.4617 16.6186 13.425 16.8453 13.425C17.2119 13.425 17.4969 13.5083 17.7003 13.675C17.9036 13.8383 18.0053 14.0667 18.0053 14.36C18.0053 14.55 17.9569 14.7167 17.8603 14.86C17.7636 15.0033 17.6319 15.1067 17.4653 15.17C17.6686 15.2267 17.8269 15.3317 17.9403 15.485C18.0536 15.635 18.1103 15.8183 18.1103 16.035C18.1103 16.3483 17.9969 16.5967 17.7703 16.78C17.5436 16.96 17.2319 17.05 16.8353 17.05Z" fill="#F4F5F6"/>
</svg>
