<svg width="24" height="24" viewBox="0 0 24 24" fill="none" xmlns="http://www.w3.org/2000/svg">
    <path opacity="0.8" d="M9 20C11.7614 20 14 17.7614 14 15C14 12.2386 11.7614 10 9 10C6.23858 10 4 12.2386 4 15C4 17.7614 6.23858 20 9 20Z" fill="#017BFF"/>
    <path opacity="0.4" d="M15 14C17.7614 14 20 11.7614 20 9C20 6.23858 17.7614 4 15 4C12.2386 4 10 6.23858 10 9C10 11.7614 12.2386 14 15 14Z" fill="#017BFF"/>
    <path d="M4.21903 5.19889C4.05964 4.60403 4.60397 4.0597 5.19883 4.21909L8.41275 5.08026C9.00761 5.23965 9.20685 5.98322 8.77138 6.41869L6.41862 8.77145C5.98316 9.20691 5.23959 9.00767 5.0802 8.41282L4.21903 5.19889Z" fill="#0062CC"/>
    <path d="M20.1106 19.1308C20.27 19.7257 19.7257 20.27 19.1308 20.1106L15.9169 19.2494C15.322 19.09 15.1228 18.3465 15.5583 17.911L17.911 15.5582C18.3465 15.1228 19.0901 15.322 19.2494 15.9169L20.1106 19.1308Z" fill="#0062CC"/>
</svg>
