<svg width="10" height="11" viewBox="0 0 10 11" fill="none" xmlns="http://www.w3.org/2000/svg">
    <g clip-path="url(#clip0_2557_1346)">
        <path d="M4.92904 7.6616L1.93154 4.23535C1.57779 3.83222 1.86529 3.1991 2.40217 3.1991H8.39717C8.51732 3.19899 8.63495 3.23353 8.73599 3.29856C8.83702 3.36359 8.91716 3.45637 8.96682 3.56578C9.01648 3.67519 9.03355 3.7966 9.01599 3.91546C8.99842 4.03432 8.94697 4.1456 8.86779 4.23597L5.87029 7.66097C5.81163 7.7281 5.73928 7.78191 5.65811 7.81877C5.57694 7.85564 5.48882 7.87471 5.39967 7.87471C5.31051 7.87471 5.22239 7.85564 5.14122 7.81877C5.06005 7.78191 4.9877 7.7281 4.92904 7.66097V7.6616Z" fill="white"/>
    </g>
    <defs>
        <clipPath id="clip0_2557_1346">
            <rect width="9.6" height="9.6" fill="white" transform="translate(0.400024 0.699951)"/>
        </clipPath>
    </defs>
</svg>
