<svg width="117" height="34" viewBox="0 0 117 34" fill="none" xmlns="http://www.w3.org/2000/svg">
    <path d="M0.52 4.296V30H19.672V26.4H4.732V18.624H18.196V15.024H4.732V7.896H19.06V4.296H0.52ZM21.6377 4.296V7.896H30.0617V30H34.2737V7.896H42.6977V4.296H21.6377ZM45.7661 4.296V30H49.9781V12.288H50.1221L57.6821 30H61.3181L68.8781 12.288H69.0221V30H73.2341V4.296H68.3021L59.5901 24.456H59.4461L50.6981 4.296H45.7661Z" fill="#16192C"/>
    <path d="M89.2656 0.479998L76.7376 33.6H80.3016L92.7936 0.479998H89.2656ZM96.2856 4.296V30H100.498V20.136H106.87C113.134 20.136 116.266 17.472 116.266 12.18C116.266 6.924 113.134 4.296 106.942 4.296H96.2856ZM100.498 7.896H106.618C108.454 7.896 109.822 8.22 110.686 8.904C111.55 9.552 112.018 10.632 112.018 12.18C112.018 13.728 111.586 14.844 110.722 15.528C109.858 16.176 108.49 16.536 106.618 16.536H100.498V7.896Z" fill="url(#paint0_linear_1651_1421)"/>
    <defs>
        <linearGradient id="paint0_linear_1651_1421" x1="118" y1="-8" x2="82.497" y2="77.2071" gradientUnits="userSpaceOnUse">
            <stop stop-color="#017BFF"/>
            <stop offset="1" stop-color="#05C8DD"/>
        </linearGradient>
    </defs>
</svg>
