<svg width="24" height="25" viewBox="0 0 24 25" fill="none" xmlns="http://www.w3.org/2000/svg">
    <g clip-path="url(#clip0_330_708)">
        <path d="M22.8076 1.64612L13.4434 8.60106L15.175 4.49774L22.8076 1.64612Z" fill="#E2761B" stroke="#E2761B" stroke-width="0.296282" stroke-linecap="round" stroke-linejoin="round"/>
        <path d="M1.18359 1.64624L10.4725 8.66706L8.82556 4.49786L1.18359 1.64624Z" fill="#E4761B" stroke="#E4761B" stroke-width="0.296282" stroke-linecap="round" stroke-linejoin="round"/>
        <path d="M19.4315 17.7678L16.9375 21.5888L22.2737 23.057L23.8077 17.8525L19.4315 17.7678Z" fill="#E4761B" stroke="#E4761B" stroke-width="0.296282" stroke-linecap="round" stroke-linejoin="round"/>
        <path d="M0.195312 17.8525L1.71994 23.057L7.05615 21.5888L4.56215 17.7678L0.195312 17.8525Z" fill="#E4761B" stroke="#E4761B" stroke-width="0.296282" stroke-linecap="round" stroke-linejoin="round"/>
        <path d="M6.75652 11.3114L5.26953 13.5607L10.5681 13.796L10.3799 8.10217L6.75652 11.3114Z" fill="#E4761B" stroke="#E4761B" stroke-width="0.296282" stroke-linecap="round" stroke-linejoin="round"/>
        <path d="M17.2263 11.3116L13.5559 8.0365L13.4336 13.7962L18.7227 13.5609L17.2263 11.3116Z" fill="#E4761B" stroke="#E4761B" stroke-width="0.296282" stroke-linecap="round" stroke-linejoin="round"/>
        <path d="M7.05469 21.5887L10.2357 20.0358L7.48761 17.89L7.05469 21.5887Z" fill="#E4761B" stroke="#E4761B" stroke-width="0.296282" stroke-linecap="round" stroke-linejoin="round"/>
        <path d="M13.748 20.0358L16.9385 21.5887L16.4961 17.89L13.748 20.0358Z" fill="#E4761B" stroke="#E4761B" stroke-width="0.296282" stroke-linecap="round" stroke-linejoin="round"/>
        <path d="M16.9404 21.5888L13.75 20.0359L14.0041 22.1158L13.9759 22.991L16.9404 21.5888Z" fill="#D7C1B3" stroke="#D7C1B3" stroke-width="0.296282" stroke-linecap="round" stroke-linejoin="round"/>
        <path d="M7.06055 21.589L10.0251 22.9913L10.0063 22.116L10.2416 20.0361L7.06055 21.589Z" fill="#D7C1B3" stroke="#D7C1B3" stroke-width="0.296282" stroke-linecap="round" stroke-linejoin="round"/>
        <path d="M10.068 16.5162L7.41406 15.7351L9.28691 14.8787L10.068 16.5162Z" fill="#233447" stroke="#233447" stroke-width="0.296282" stroke-linecap="round" stroke-linejoin="round"/>
        <path d="M13.9199 16.5162L14.7011 14.8787L16.5833 15.7351L13.9199 16.5162Z" fill="#233447" stroke="#233447" stroke-width="0.296282" stroke-linecap="round" stroke-linejoin="round"/>
        <path d="M7.05845 21.5888L7.51019 17.7678L4.56445 17.8525L7.05845 21.5888Z" fill="#CD6116" stroke="#CD6116" stroke-width="0.296282" stroke-linecap="round" stroke-linejoin="round"/>
        <path d="M16.4883 17.7678L16.94 21.5888L19.434 17.8525L16.4883 17.7678Z" fill="#CD6116" stroke="#CD6116" stroke-width="0.296282" stroke-linecap="round" stroke-linejoin="round"/>
        <path d="M18.7286 13.561L13.4395 13.7963L13.9288 16.5162L14.71 14.8786L16.5922 15.735L18.7286 13.561Z" fill="#CD6116" stroke="#CD6116" stroke-width="0.296282" stroke-linecap="round" stroke-linejoin="round"/>
        <path d="M7.41531 15.735L9.29757 14.8786L10.0693 16.5162L10.5681 13.7963L5.26953 13.561L7.41531 15.735Z" fill="#CD6116" stroke="#CD6116" stroke-width="0.296282" stroke-linecap="round" stroke-linejoin="round"/>
        <path d="M5.26953 13.561L7.4906 17.8902L7.41531 15.735L5.26953 13.561Z" fill="#E4751F" stroke="#E4751F" stroke-width="0.296282" stroke-linecap="round" stroke-linejoin="round"/>
        <path d="M16.5922 15.735L16.498 17.8902L18.7285 13.561L16.5922 15.735Z" fill="#E4751F" stroke="#E4751F" stroke-width="0.296282" stroke-linecap="round" stroke-linejoin="round"/>
        <path d="M10.5691 13.7963L10.0703 16.5161L10.6915 19.7254L10.8326 15.4997L10.5691 13.7963Z" fill="#E4751F" stroke="#E4751F" stroke-width="0.296282" stroke-linecap="round" stroke-linejoin="round"/>
        <path d="M13.4377 13.7963L13.1836 15.4903L13.2965 19.7254L13.9271 16.5161L13.4377 13.7963Z" fill="#E4751F" stroke="#E4751F" stroke-width="0.296282" stroke-linecap="round" stroke-linejoin="round"/>
        <path d="M13.9333 16.5161L13.3027 19.7254L13.7545 20.0359L16.5026 17.8902L16.5967 15.735L13.9333 16.5161Z" fill="#F6851B" stroke="#F6851B" stroke-width="0.296282" stroke-linecap="round" stroke-linejoin="round"/>
        <path d="M7.41406 15.735L7.48935 17.8902L10.2375 20.0359L10.6892 19.7254L10.068 16.5161L7.41406 15.735Z" fill="#F6851B" stroke="#F6851B" stroke-width="0.296282" stroke-linecap="round" stroke-linejoin="round"/>
        <path d="M13.9778 22.991L14.0061 22.1158L13.7708 21.9087H10.2227L10.0063 22.1158L10.0251 22.991L7.06055 21.5887L8.09579 22.4358L10.1945 23.8945H13.799L15.9072 22.4358L16.9424 21.5887L13.9778 22.991Z" fill="#C0AD9E" stroke="#C0AD9E" stroke-width="0.296282" stroke-linecap="round" stroke-linejoin="round"/>
        <path d="M13.7496 20.0359L13.2979 19.7253H10.6909L10.2392 20.0359L10.0039 22.1158L10.2204 21.9088H13.7684L14.0037 22.1158L13.7496 20.0359Z" fill="#161616" stroke="#161616" stroke-width="0.296282" stroke-linecap="round" stroke-linejoin="round"/>
        <path d="M23.1989 9.05293L23.9989 5.21312L22.8037 1.64624L13.75 8.3659L17.2322 11.3116L22.1543 12.7516L23.246 11.481L22.7754 11.1422L23.5283 10.4552L22.9448 10.0035L23.6977 9.42938L23.1989 9.05293Z" fill="#763D16" stroke="#763D16" stroke-width="0.296282" stroke-linecap="round" stroke-linejoin="round"/>
        <path d="M0 5.21336L0.79996 9.05317L0.29175 9.42962L1.04465 10.0037L0.470565 10.4555L1.22347 11.1425L0.752903 11.4813L1.8352 12.7518L6.75731 11.3119L10.2395 8.36615L1.18582 1.64648L0 5.21336Z" fill="#763D16" stroke="#763D16" stroke-width="0.296282" stroke-linecap="round" stroke-linejoin="round"/>
        <path d="M22.1542 12.7516L17.2321 11.3116L18.7285 13.5609L16.498 17.8901L19.4344 17.8525H23.8106L22.1542 12.7516Z" fill="#F6851B" stroke="#F6851B" stroke-width="0.296282" stroke-linecap="round" stroke-linejoin="round"/>
        <path d="M6.75498 11.3116L1.83288 12.7516L0.195312 17.8525H4.56215L7.48906 17.8901L5.268 13.5609L6.75498 11.3116Z" fill="#F6851B" stroke="#F6851B" stroke-width="0.296282" stroke-linecap="round" stroke-linejoin="round"/>
        <path d="M13.4377 13.7964L13.7483 8.36609L15.1788 4.49805H8.82617L10.2379 8.36609L10.5673 13.7964L10.6802 15.5093L10.6896 19.7255H13.2965L13.3154 15.5093L13.4377 13.7964Z" fill="#F6851B" stroke="#F6851B" stroke-width="0.296282" stroke-linecap="round" stroke-linejoin="round"/>
    </g>
    <defs>
        <clipPath id="clip0_330_708">
            <rect width="24" height="24" fill="white" transform="translate(0 0.5)"/>
        </clipPath>
    </defs>
</svg>
