<svg width="120" height="120" viewBox="0 0 120 120" fill="none" xmlns="http://www.w3.org/2000/svg">
<rect width="120" height="120" rx="20" fill="#F1F7FF"/>
<path d="M39.9584 60H35.3334V44.5834H29.1667V38.4167H47.6667V44.5834H41.5V53.2013L71.7568 45.0952L69.9685 38.4167H60V32.25H72.2655C72.9558 32.2348 73.6312 32.4517 74.1835 32.8659C74.7359 33.2802 75.1332 33.8679 75.3119 34.5348L80.1003 52.4058L74.1433 53.9999L73.354 51.0522L39.9584 60ZM38.4167 81.5834C40.0522 81.5834 41.6207 80.9336 42.7772 79.7772C43.9337 78.6207 44.5834 77.0522 44.5834 75.4167C44.5834 73.7812 43.9337 72.2127 42.7772 71.0562C41.6207 69.8997 40.0522 69.25 38.4167 69.25C36.7812 69.25 35.2127 69.8997 34.0562 71.0562C32.8997 72.2127 32.25 73.7812 32.25 75.4167C32.25 77.0522 32.8997 78.6207 34.0562 79.7772C35.2127 80.9336 36.7812 81.5834 38.4167 81.5834V81.5834ZM38.4167 87.75C35.1457 87.75 32.0087 86.4506 29.6957 84.1377C27.3828 81.8247 26.0834 78.6877 26.0834 75.4167C26.0834 72.1457 27.3828 69.0086 29.6957 66.6957C32.0087 64.3828 35.1457 63.0833 38.4167 63.0833C41.6877 63.0833 44.8247 64.3828 47.1377 66.6957C49.4506 69.0086 50.75 72.1457 50.75 75.4167C50.75 78.6877 49.4506 81.8247 47.1377 84.1377C44.8247 86.4506 41.6877 87.75 38.4167 87.75V87.75ZM78.5 81.5834C80.9533 81.5834 83.3061 80.6088 85.0408 78.8741C86.7755 77.1394 87.75 74.7866 87.75 72.3333C87.75 69.8801 86.7755 67.5273 85.0408 65.7926C83.3061 64.0579 80.9533 63.0833 78.5 63.0833C76.0468 63.0833 73.694 64.0579 71.9593 65.7926C70.2246 67.5273 69.25 69.8801 69.25 72.3333C69.25 74.7866 70.2246 77.1394 71.9593 78.8741C73.694 80.6088 76.0468 81.5834 78.5 81.5834ZM78.5 87.75C74.4113 87.75 70.49 86.1258 67.5988 83.2346C64.7076 80.3434 63.0834 76.4221 63.0834 72.3333C63.0834 68.2446 64.7076 64.3233 67.5988 61.4321C70.49 58.5409 74.4113 56.9167 78.5 56.9167C82.5888 56.9167 86.5101 58.5409 89.4013 61.4321C92.2924 64.3233 93.9167 68.2446 93.9167 72.3333C93.9167 76.4221 92.2924 80.3434 89.4013 83.2346C86.5101 86.1258 82.5888 87.75 78.5 87.75Z" fill="url(#paint0_linear_143_104)"/>
<defs>
<linearGradient id="paint0_linear_143_104" x1="93.9167" y1="32.2493" x2="39.5148" y2="98.7395" gradientUnits="userSpaceOnUse">
<stop stop-color="#017BFF"/>
<stop offset="1" stop-color="#05C8DD"/>
</linearGradient>
</defs>
</svg>
