<svg width="22" height="22" viewBox="0 0 22 22" fill="none" xmlns="http://www.w3.org/2000/svg">
    <path d="M15.3123 10.2489H6.68732C6.58419 10.2489 6.49982 10.3333 6.49982 10.4364V11.5614C6.49982 11.6645 6.58419 11.7489 6.68732 11.7489H15.3123C15.4154 11.7489 15.4998 11.6645 15.4998 11.5614V10.4364C15.4998 10.3333 15.4154 10.2489 15.3123 10.2489Z" fill="url(#paint0_linear_143_85)"/>
    <path d="M11 0.5C5.20156 0.5 0.5 5.20156 0.5 11C0.5 16.7984 5.20156 21.5 11 21.5C16.7984 21.5 21.5 16.7984 21.5 11C21.5 5.20156 16.7984 0.5 11 0.5ZM11 19.7188C6.18594 19.7188 2.28125 15.8141 2.28125 11C2.28125 6.18594 6.18594 2.28125 11 2.28125C15.8141 2.28125 19.7188 6.18594 19.7188 11C19.7188 15.8141 15.8141 19.7188 11 19.7188Z" fill="url(#paint1_linear_143_85)"/>
    <defs>
        <linearGradient id="paint0_linear_143_85" x1="21.5" y1="0.5" x2="0.5" y2="21.5" gradientUnits="userSpaceOnUse">
            <stop stop-color="#017BFF"/>
            <stop offset="1" stop-color="#05C8DD"/>
        </linearGradient>
        <linearGradient id="paint1_linear_143_85" x1="21.5" y1="0.5" x2="0.5" y2="21.5" gradientUnits="userSpaceOnUse">
            <stop stop-color="#017BFF"/>
            <stop offset="1" stop-color="#05C8DD"/>
        </linearGradient>
    </defs>
</svg>
