<svg width="120" height="120" viewBox="0 0 120 120" fill="none" xmlns="http://www.w3.org/2000/svg">
    <rect width="120" height="120" rx="20" fill="#FFF1F1"/>
    <path d="M60 93.9167C66.1331 93.9167 72.015 91.4803 76.3518 87.1435C80.6886 82.8067 83.125 76.9248 83.125 70.7917C83.125 68.1215 82.4158 65.5592 81.5833 63.1758C76.4434 68.2541 72.5399 70.7917 69.8666 70.7917C82.1846 49.2083 75.4166 39.9583 56.9167 27.625C58.4583 43.0417 48.2957 50.0532 44.1578 53.9474C40.7826 57.1223 38.439 61.2379 37.4309 65.7607C36.4227 70.2835 36.7966 75.0048 38.5041 79.3126C40.2115 83.6203 43.1736 87.3157 47.0065 89.9198C50.8394 92.5238 55.3662 93.9163 60 93.9167ZM62.1892 39.1412C72.1822 47.6204 72.2316 54.2095 64.5109 67.7361C62.1645 71.8462 65.1337 76.9583 69.8666 76.9583C71.988 76.9583 74.134 76.3417 76.4002 75.1238C75.7285 77.6613 74.4769 80.0082 72.7439 81.9798C71.0109 83.9513 68.8439 85.4937 66.4135 86.4854C63.9832 87.4771 61.3557 87.8911 58.7381 87.6948C56.1206 87.4984 53.5843 86.6971 51.3291 85.354C49.0738 84.0108 47.1611 82.1624 45.7417 79.9544C44.3222 77.7464 43.4347 75.239 43.149 72.6296C42.8633 70.0203 43.1873 67.3802 44.0953 64.9174C45.0034 62.4545 46.4708 60.2361 48.382 58.4367C48.7705 58.0729 50.7407 56.3247 50.8271 56.2476C52.1344 55.0759 53.2105 54.0368 54.2742 52.8991C58.0667 48.8352 60.7924 44.3274 62.1861 39.1412H62.1892Z" fill="url(#paint0_linear_143_153)"/>
    <defs>
        <linearGradient id="paint0_linear_143_153" x1="83.125" y1="27.625" x2="20.9096" y2="71.0292" gradientUnits="userSpaceOnUse">
            <stop stop-color="#FF3366"/>
            <stop offset="1" stop-color="#FF789A"/>
        </linearGradient>
    </defs>
</svg>
