<svg width="684" height="329" viewBox="0 0 684 329" fill="none" xmlns="http://www.w3.org/2000/svg">
    <path d="M460.42 136.1H398.516" stroke="url(#paint0_linear_0_1)" stroke-width="2" stroke-linecap="round"/>
    <circle r="4.90332" transform="matrix(-1 0 0 1 461.033 136.101)" fill="url(#paint1_linear_0_1)"/>
    <g filter="url(#filter0_dd_0_1)">
        <path fill-rule="evenodd" clip-rule="evenodd" d="M242.645 222.227L119.319 153.832C104.219 145.459 104.219 123.679 119.319 115.306L242.645 46.91C249.247 43.2478 257.263 43.2478 263.865 46.91L387.192 115.306C402.291 123.679 402.291 145.459 387.192 153.832L263.865 222.227C257.263 225.888 249.247 225.888 242.645 222.227Z" fill="#F4F5F6" stroke="url(#paint2_linear_0_1)" stroke-width="4.66667" stroke-miterlimit="8"/>
        <path fill-rule="evenodd" clip-rule="evenodd" d="M246.681 185.669L173.83 145.559C164.911 140.648 164.911 127.876 173.83 122.965L246.681 82.8555C250.581 80.7078 255.315 80.7078 259.216 82.8555L332.067 122.965C340.986 127.876 340.986 140.648 332.067 145.559L259.216 185.669C255.315 187.816 250.581 187.816 246.681 185.669Z" fill="url(#paint3_linear_0_1)"/>
    </g>
    <path d="M507.382 148V124.96H516.902C517.126 124.96 517.414 124.971 517.766 124.992C518.118 125.003 518.443 125.035 518.742 125.088C520.075 125.291 521.174 125.733 522.038 126.416C522.912 127.099 523.558 127.963 523.974 129.008C524.4 130.043 524.614 131.195 524.614 132.464C524.614 133.723 524.4 134.875 523.974 135.92C523.547 136.955 522.896 137.813 522.022 138.496C521.158 139.179 520.064 139.621 518.742 139.824C518.443 139.867 518.112 139.899 517.75 139.92C517.398 139.941 517.115 139.952 516.902 139.952H511.238V148H507.382ZM511.238 136.352H516.742C516.955 136.352 517.195 136.341 517.462 136.32C517.728 136.299 517.974 136.256 518.198 136.192C518.838 136.032 519.339 135.749 519.702 135.344C520.075 134.939 520.336 134.48 520.486 133.968C520.646 133.456 520.726 132.955 520.726 132.464C520.726 131.973 520.646 131.472 520.486 130.96C520.336 130.437 520.075 129.973 519.702 129.568C519.339 129.163 518.838 128.88 518.198 128.72C517.974 128.656 517.728 128.619 517.462 128.608C517.195 128.587 516.955 128.576 516.742 128.576H511.238V136.352ZM527.819 148V130.72H531.227V134.928L530.811 134.384C531.024 133.808 531.307 133.285 531.659 132.816C532.022 132.336 532.454 131.941 532.955 131.632C533.382 131.344 533.851 131.12 534.363 130.96C534.886 130.789 535.419 130.688 535.963 130.656C536.507 130.613 537.035 130.635 537.547 130.72V134.32C537.035 134.171 536.443 134.123 535.771 134.176C535.11 134.229 534.512 134.416 533.979 134.736C533.446 135.024 533.008 135.392 532.667 135.84C532.336 136.288 532.091 136.8 531.931 137.376C531.771 137.941 531.691 138.555 531.691 139.216V148H527.819ZM547.92 148.48C546.192 148.48 544.683 148.091 543.392 147.312C542.101 146.533 541.099 145.461 540.384 144.096C539.68 142.72 539.328 141.141 539.328 139.36C539.328 137.547 539.691 135.957 540.416 134.592C541.141 133.227 542.149 132.16 543.44 131.392C544.731 130.624 546.224 130.24 547.92 130.24C549.659 130.24 551.173 130.629 552.464 131.408C553.755 132.187 554.757 133.264 555.472 134.64C556.187 136.005 556.544 137.579 556.544 139.36C556.544 141.152 556.181 142.736 555.456 144.112C554.741 145.477 553.739 146.549 552.448 147.328C551.157 148.096 549.648 148.48 547.92 148.48ZM547.92 144.864C549.456 144.864 550.597 144.352 551.344 143.328C552.091 142.304 552.464 140.981 552.464 139.36C552.464 137.685 552.085 136.352 551.328 135.36C550.571 134.357 549.435 133.856 547.92 133.856C546.885 133.856 546.032 134.091 545.36 134.56C544.699 135.019 544.208 135.664 543.888 136.496C543.568 137.317 543.408 138.272 543.408 139.36C543.408 141.035 543.787 142.373 544.544 143.376C545.312 144.368 546.437 144.864 547.92 144.864ZM570.197 148C569.056 148.213 567.936 148.304 566.837 148.272C565.749 148.251 564.773 148.053 563.909 147.68C563.045 147.296 562.389 146.693 561.941 145.872C561.546 145.125 561.338 144.363 561.317 143.584C561.296 142.805 561.285 141.925 561.285 140.944V125.92H565.125V140.72C565.125 141.413 565.13 142.021 565.141 142.544C565.162 143.067 565.274 143.493 565.477 143.824C565.861 144.464 566.474 144.821 567.317 144.896C568.16 144.971 569.12 144.928 570.197 144.768V148ZM558.149 133.744V130.72H570.197V133.744H558.149ZM580.894 148.48C579.145 148.48 577.609 148.101 576.286 147.344C574.963 146.587 573.929 145.536 573.182 144.192C572.446 142.848 572.078 141.301 572.078 139.552C572.078 137.664 572.441 136.027 573.166 134.64C573.891 133.243 574.899 132.16 576.19 131.392C577.481 130.624 578.974 130.24 580.67 130.24C582.462 130.24 583.982 130.661 585.23 131.504C586.489 132.336 587.422 133.515 588.03 135.04C588.638 136.565 588.867 138.363 588.718 140.432H584.894V139.024C584.883 137.147 584.553 135.776 583.902 134.912C583.251 134.048 582.227 133.616 580.83 133.616C579.251 133.616 578.078 134.107 577.31 135.088C576.542 136.059 576.158 137.483 576.158 139.36C576.158 141.109 576.542 142.464 577.31 143.424C578.078 144.384 579.198 144.864 580.67 144.864C581.619 144.864 582.435 144.656 583.118 144.24C583.811 143.813 584.345 143.2 584.718 142.4L588.526 143.552C587.865 145.109 586.841 146.32 585.454 147.184C584.078 148.048 582.558 148.48 580.894 148.48ZM574.942 140.432V137.52H586.83V140.432H574.942ZM592.288 148V130.72H595.696V134.928L595.28 134.384C595.493 133.808 595.776 133.285 596.128 132.816C596.491 132.336 596.923 131.941 597.424 131.632C597.851 131.344 598.32 131.12 598.832 130.96C599.355 130.789 599.888 130.688 600.432 130.656C600.976 130.613 601.504 130.635 602.016 130.72V134.32C601.504 134.171 600.912 134.123 600.24 134.176C599.579 134.229 598.981 134.416 598.448 134.736C597.915 135.024 597.477 135.392 597.136 135.84C596.805 136.288 596.56 136.8 596.4 137.376C596.24 137.941 596.16 138.555 596.16 139.216V148H592.288ZM612.389 148.48C610.661 148.48 609.151 148.091 607.861 147.312C606.57 146.533 605.567 145.461 604.853 144.096C604.149 142.72 603.797 141.141 603.797 139.36C603.797 137.547 604.159 135.957 604.885 134.592C605.61 133.227 606.618 132.16 607.909 131.392C609.199 130.624 610.693 130.24 612.389 130.24C614.127 130.24 615.642 130.629 616.933 131.408C618.223 132.187 619.226 133.264 619.941 134.64C620.655 136.005 621.013 137.579 621.013 139.36C621.013 141.152 620.65 142.736 619.925 144.112C619.21 145.477 618.207 146.549 616.917 147.328C615.626 148.096 614.117 148.48 612.389 148.48ZM612.389 144.864C613.925 144.864 615.066 144.352 615.813 143.328C616.559 142.304 616.933 140.981 616.933 139.36C616.933 137.685 616.554 136.352 615.797 135.36C615.039 134.357 613.903 133.856 612.389 133.856C611.354 133.856 610.501 134.091 609.829 134.56C609.167 135.019 608.677 135.664 608.357 136.496C608.037 137.317 607.877 138.272 607.877 139.36C607.877 141.035 608.255 142.373 609.013 143.376C609.781 144.368 610.906 144.864 612.389 144.864ZM622.313 148V147.472L631.465 134.096H623.241V130.72H637.465V131.264L628.345 144.624H637.081V148H622.313ZM647.326 148.48C645.598 148.48 644.089 148.091 642.798 147.312C641.507 146.533 640.505 145.461 639.79 144.096C639.086 142.72 638.734 141.141 638.734 139.36C638.734 137.547 639.097 135.957 639.822 134.592C640.547 133.227 641.555 132.16 642.846 131.392C644.137 130.624 645.63 130.24 647.326 130.24C649.065 130.24 650.579 130.629 651.87 131.408C653.161 132.187 654.163 133.264 654.878 134.64C655.593 136.005 655.95 137.579 655.95 139.36C655.95 141.152 655.587 142.736 654.862 144.112C654.147 145.477 653.145 146.549 651.854 147.328C650.563 148.096 649.054 148.48 647.326 148.48ZM647.326 144.864C648.862 144.864 650.003 144.352 650.75 143.328C651.497 142.304 651.87 140.981 651.87 139.36C651.87 137.685 651.491 136.352 650.734 135.36C649.977 134.357 648.841 133.856 647.326 133.856C646.291 133.856 645.438 134.091 644.766 134.56C644.105 135.019 643.614 135.664 643.294 136.496C642.974 137.317 642.814 138.272 642.814 139.36C642.814 141.035 643.193 142.373 643.95 143.376C644.718 144.368 645.843 144.864 647.326 144.864ZM659.795 128.096V124.56H663.651V128.096H659.795ZM659.795 148V130.72H663.651V148H659.795ZM675.948 148.48C674.167 148.48 672.647 148.085 671.388 147.296C670.129 146.496 669.164 145.408 668.492 144.032C667.831 142.656 667.495 141.099 667.484 139.36C667.495 137.589 667.841 136.021 668.524 134.656C669.217 133.28 670.199 132.203 671.468 131.424C672.737 130.635 674.247 130.24 675.996 130.24C677.959 130.24 679.617 130.736 680.972 131.728C682.337 132.709 683.228 134.053 683.644 135.76L679.804 136.8C679.505 135.872 679.009 135.152 678.316 134.64C677.623 134.117 676.833 133.856 675.948 133.856C674.945 133.856 674.119 134.096 673.468 134.576C672.817 135.045 672.337 135.696 672.028 136.528C671.719 137.36 671.564 138.304 671.564 139.36C671.564 141.003 671.932 142.331 672.668 143.344C673.404 144.357 674.497 144.864 675.948 144.864C676.972 144.864 677.777 144.629 678.364 144.16C678.961 143.691 679.409 143.013 679.708 142.128L683.644 143.008C683.111 144.768 682.177 146.123 680.844 147.072C679.511 148.011 677.879 148.48 675.948 148.48Z" fill="url(#paint4_linear_0_1)"/>
    <g opacity="0.3" filter="url(#filter1_f_0_1)">
        <circle cx="94.8905" cy="154.214" r="24.1903" fill="url(#paint5_linear_0_1)"/>
    </g>
    <path d="M99.0278 96.1024L80.7061 106.608C76.0432 109.281 73.1672 114.245 73.1672 119.62L73.1672 140.427C73.1672 145.802 76.0432 150.766 80.7061 153.44L99.0278 163.945C103.649 166.595 109.329 166.595 113.95 163.945L132.272 153.44C136.935 150.766 139.811 145.802 139.811 140.427V119.62C139.811 114.245 136.935 109.281 132.272 106.608L113.95 96.1024C109.329 93.4528 103.649 93.4528 99.0278 96.1024Z" stroke="url(#paint6_linear_0_1)" stroke-width="4"/>
    <path d="M112.944 103.191C108.945 100.903 104.033 100.903 100.034 103.191L86.3523 111.017C82.3047 113.332 79.8072 117.638 79.8072 122.301V137.746C79.8072 142.409 82.3047 146.715 86.3523 149.03L100.034 156.857C104.033 159.144 108.945 159.144 112.944 156.857L126.626 149.03C130.673 146.715 133.171 142.409 133.171 137.746V122.301C133.171 117.638 130.673 113.332 126.626 111.017L112.944 103.191Z" fill="url(#paint7_linear_0_1)"/>
    <path d="M107.494 135.753V137.592H111.173V139.432H101.975V137.592H105.654V135.753H98.2887C98.1679 135.752 98.0485 135.728 97.9372 135.681C97.8259 135.634 97.725 135.565 97.6402 135.479C97.5555 135.393 97.4885 135.291 97.4432 135.179C97.3979 135.067 97.3752 134.947 97.3763 134.827V122.882C97.3763 122.371 97.7948 121.956 98.2887 121.956H114.86C115.364 121.956 115.772 122.369 115.772 122.882V134.827C115.772 135.338 115.354 135.753 114.86 135.753H107.494V135.753Z" fill="white"/>
    <defs>
        <filter id="filter0_dd_0_1" x="39.6609" y="0.830017" width="437.188" height="327.476" filterUnits="userSpaceOnUse" color-interpolation-filters="sRGB">
            <feFlood flood-opacity="0" result="BackgroundImageFix"/>
            <feColorMatrix in="SourceAlpha" type="matrix" values="0 0 0 0 0 0 0 0 0 0 0 0 0 0 0 0 0 0 127 0" result="hardAlpha"/>
            <feOffset dx="5" dy="30"/>
            <feGaussianBlur stdDeviation="35.5"/>
            <feColorMatrix type="matrix" values="0 0 0 0 0.0784314 0 0 0 0 0.145098 0 0 0 0 0.247059 0 0 0 0.08 0"/>
            <feBlend mode="normal" in2="BackgroundImageFix" result="effect1_dropShadow_0_1"/>
            <feColorMatrix in="SourceAlpha" type="matrix" values="0 0 0 0 0 0 0 0 0 0 0 0 0 0 0 0 0 0 127 0" result="hardAlpha"/>
            <feOffset/>
            <feGaussianBlur stdDeviation="0.5"/>
            <feColorMatrix type="matrix" values="0 0 0 0 0.0470588 0 0 0 0 0.101961 0 0 0 0 0.294118 0 0 0 0.1 0"/>
            <feBlend mode="normal" in2="effect1_dropShadow_0_1" result="effect2_dropShadow_0_1"/>
            <feBlend mode="normal" in="SourceGraphic" in2="effect2_dropShadow_0_1" result="shape"/>
        </filter>
        <filter id="filter1_f_0_1" x="0.700195" y="60.0241" width="188.381" height="188.381" filterUnits="userSpaceOnUse" color-interpolation-filters="sRGB">
            <feFlood flood-opacity="0" result="BackgroundImageFix"/>
            <feBlend mode="normal" in="SourceGraphic" in2="BackgroundImageFix" result="shape"/>
            <feGaussianBlur stdDeviation="35" result="effect1_foregroundBlur_0_1"/>
        </filter>
        <linearGradient id="paint0_linear_0_1" x1="402.127" y1="136.159" x2="402.155" y2="137.942" gradientUnits="userSpaceOnUse">
            <stop offset="0.0260417" stop-color="#05C8DD"/>
            <stop offset="1" stop-color="#96F5FF"/>
        </linearGradient>
        <linearGradient id="paint1_linear_0_1" x1="9.23458" y1="0.572053" x2="0.490332" y2="9.47975" gradientUnits="userSpaceOnUse">
            <stop offset="0.0260417" stop-color="#05C8DD"/>
            <stop offset="1" stop-color="#96F5FF"/>
        </linearGradient>
        <linearGradient id="paint2_linear_0_1" x1="381.569" y1="54.7106" x2="238.093" y2="289.554" gradientUnits="userSpaceOnUse">
            <stop offset="0.0260417" stop-color="#05C8DD"/>
            <stop offset="1" stop-color="#96F5FF"/>
        </linearGradient>
        <linearGradient id="paint3_linear_0_1" x1="328.746" y1="87.4301" x2="244.885" y2="225.694" gradientUnits="userSpaceOnUse">
            <stop offset="0.0260417" stop-color="#05C8DD"/>
            <stop offset="1" stop-color="#96F5FF"/>
        </linearGradient>
        <linearGradient id="paint4_linear_0_1" x1="674.642" y1="116.567" x2="656.835" y2="190.774" gradientUnits="userSpaceOnUse">
            <stop offset="0.0260417" stop-color="#05C8DD"/>
            <stop offset="1" stop-color="#96F5FF"/>
        </linearGradient>
        <linearGradient id="paint5_linear_0_1" x1="116.259" y1="132.846" x2="73.1192" y2="176.792" gradientUnits="userSpaceOnUse">
            <stop offset="0.0260417" stop-color="#05C8DD"/>
            <stop offset="1" stop-color="#96F5FF"/>
        </linearGradient>
        <linearGradient id="paint6_linear_0_1" x1="70.4613" y1="94.2446" x2="142.684" y2="168.328" gradientUnits="userSpaceOnUse">
            <stop offset="0.0260417" stop-color="#05C8DD"/>
            <stop offset="1" stop-color="#96F5FF"/>
        </linearGradient>
        <linearGradient id="paint7_linear_0_1" x1="79.2739" y1="103.06" x2="133.699" y2="159.018" gradientUnits="userSpaceOnUse">
            <stop offset="0.0260417" stop-color="#05C8DD"/>
            <stop offset="1" stop-color="#96F5FF"/>
        </linearGradient>
    </defs>
</svg>
