<svg width="663" height="329" viewBox="0 0 663 329" fill="none" xmlns="http://www.w3.org/2000/svg">
    <path d="M0.629648 141V117.96H10.1496C10.3736 117.96 10.6616 117.971 11.0136 117.992C11.3656 118.003 11.691 118.035 11.9896 118.088C13.323 118.291 14.4216 118.733 15.2856 119.416C16.1603 120.099 16.8056 120.963 17.2216 122.008C17.6483 123.043 17.8616 124.195 17.8616 125.464C17.8616 126.723 17.6483 127.875 17.2216 128.92C16.795 129.955 16.1443 130.813 15.2696 131.496C14.4056 132.179 13.3123 132.621 11.9896 132.824C11.691 132.867 11.3603 132.899 10.9976 132.92C10.6456 132.941 10.363 132.952 10.1496 132.952H4.48565V141H0.629648ZM4.48565 129.352H9.98965C10.203 129.352 10.443 129.341 10.7096 129.32C10.9763 129.299 11.2216 129.256 11.4456 129.192C12.0856 129.032 12.587 128.749 12.9496 128.344C13.323 127.939 13.5843 127.48 13.7336 126.968C13.8936 126.456 13.9736 125.955 13.9736 125.464C13.9736 124.973 13.8936 124.472 13.7336 123.96C13.5843 123.437 13.323 122.973 12.9496 122.568C12.587 122.163 12.0856 121.88 11.4456 121.72C11.2216 121.656 10.9763 121.619 10.7096 121.608C10.443 121.587 10.203 121.576 9.98965 121.576H4.48565V129.352ZM33.0191 141V132.68C33.0191 132.136 32.9818 131.533 32.9071 130.872C32.8325 130.211 32.6565 129.576 32.3791 128.968C32.1125 128.349 31.7071 127.843 31.1631 127.448C30.6298 127.053 29.9045 126.856 28.9871 126.856C28.4965 126.856 28.0111 126.936 27.5311 127.096C27.0511 127.256 26.6138 127.533 26.2191 127.928C25.8351 128.312 25.5258 128.845 25.2911 129.528C25.0565 130.2 24.9391 131.064 24.9391 132.12L22.6511 131.144C22.6511 129.672 22.9338 128.339 23.4991 127.144C24.0751 125.949 24.9178 125 26.0271 124.296C27.1365 123.581 28.5018 123.224 30.1231 123.224C31.4031 123.224 32.4591 123.437 33.2911 123.864C34.1231 124.291 34.7845 124.835 35.2751 125.496C35.7658 126.157 36.1285 126.861 36.3631 127.608C36.5978 128.355 36.7471 129.064 36.8111 129.736C36.8858 130.397 36.9231 130.936 36.9231 131.352V141H33.0191ZM21.0351 141V117.96H24.4751V130.088H24.9391V141H21.0351ZM45.9304 141.48C44.6824 141.48 43.6264 141.245 42.7624 140.776C41.8984 140.296 41.2424 139.661 40.7944 138.872C40.3571 138.083 40.1384 137.213 40.1384 136.264C40.1384 135.432 40.2771 134.685 40.5544 134.024C40.8317 133.352 41.2584 132.776 41.8344 132.296C42.4104 131.805 43.1571 131.405 44.0744 131.096C44.7677 130.872 45.5784 130.669 46.5064 130.488C47.4451 130.307 48.4584 130.141 49.5464 129.992C50.6451 129.832 51.7917 129.661 52.9864 129.48L51.6104 130.264C51.6211 129.069 51.3544 128.189 50.8104 127.624C50.2664 127.059 49.3491 126.776 48.0584 126.776C47.2797 126.776 46.5277 126.957 45.8024 127.32C45.0771 127.683 44.5704 128.307 44.2824 129.192L40.7624 128.088C41.1891 126.627 41.9997 125.453 43.1944 124.568C44.3997 123.683 46.0211 123.24 48.0584 123.24C49.5944 123.24 50.9437 123.491 52.1064 123.992C53.2797 124.493 54.1491 125.315 54.7144 126.456C55.0237 127.064 55.2104 127.688 55.2744 128.328C55.3384 128.957 55.3704 129.645 55.3704 130.392V141H51.9944V137.256L52.5544 137.864C51.7757 139.112 50.8637 140.029 49.8184 140.616C48.7837 141.192 47.4877 141.48 45.9304 141.48ZM46.6984 138.408C47.5731 138.408 48.3197 138.253 48.9384 137.944C49.5571 137.635 50.0477 137.256 50.4104 136.808C50.7837 136.36 51.0344 135.939 51.1624 135.544C51.3651 135.053 51.4771 134.493 51.4984 133.864C51.5304 133.224 51.5464 132.707 51.5464 132.312L52.7304 132.664C51.5677 132.845 50.5704 133.005 49.7384 133.144C48.9064 133.283 48.1917 133.416 47.5944 133.544C46.9971 133.661 46.4691 133.795 46.0104 133.944C45.5624 134.104 45.1837 134.291 44.8744 134.504C44.5651 134.717 44.3251 134.963 44.1544 135.24C43.9944 135.517 43.9144 135.843 43.9144 136.216C43.9144 136.643 44.0211 137.021 44.2344 137.352C44.4477 137.672 44.7571 137.928 45.1624 138.12C45.5784 138.312 46.0904 138.408 46.6984 138.408ZM71.4879 141V132.68C71.4879 132.136 71.4506 131.533 71.3759 130.872C71.3012 130.211 71.1252 129.576 70.8479 128.968C70.5812 128.349 70.1759 127.843 69.6319 127.448C69.0986 127.053 68.3732 126.856 67.4559 126.856C66.9652 126.856 66.4799 126.936 65.9999 127.096C65.5199 127.256 65.0826 127.533 64.6879 127.928C64.3039 128.312 63.9946 128.845 63.7599 129.528C63.5252 130.2 63.4079 131.064 63.4079 132.12L61.1199 131.144C61.1199 129.672 61.4026 128.339 61.9679 127.144C62.5439 125.949 63.3866 125 64.4959 124.296C65.6052 123.581 66.9706 123.224 68.5919 123.224C69.8719 123.224 70.9279 123.437 71.7599 123.864C72.5919 124.291 73.2532 124.835 73.7439 125.496C74.2346 126.157 74.5972 126.861 74.8319 127.608C75.0666 128.355 75.2159 129.064 75.2799 129.736C75.3546 130.397 75.3919 130.936 75.3919 131.352V141H71.4879ZM59.5039 141V123.72H62.9439V129.08H63.4079V141H59.5039ZM87.1419 141.48C85.3926 141.48 83.8566 141.101 82.5339 140.344C81.2112 139.587 80.1766 138.536 79.4299 137.192C78.6939 135.848 78.3259 134.301 78.3259 132.552C78.3259 130.664 78.6886 129.027 79.4139 127.64C80.1392 126.243 81.1472 125.16 82.4379 124.392C83.7286 123.624 85.2219 123.24 86.9179 123.24C88.7099 123.24 90.2299 123.661 91.4779 124.504C92.7366 125.336 93.6699 126.515 94.2779 128.04C94.8859 129.565 95.1152 131.363 94.9659 133.432H91.1419V132.024C91.1312 130.147 90.8006 128.776 90.1499 127.912C89.4992 127.048 88.4752 126.616 87.0779 126.616C85.4992 126.616 84.3259 127.107 83.5579 128.088C82.7899 129.059 82.4059 130.483 82.4059 132.36C82.4059 134.109 82.7899 135.464 83.5579 136.424C84.3259 137.384 85.4459 137.864 86.9179 137.864C87.8672 137.864 88.6832 137.656 89.3659 137.24C90.0592 136.813 90.5926 136.2 90.9659 135.4L94.7739 136.552C94.1126 138.109 93.0886 139.32 91.7019 140.184C90.3259 141.048 88.8059 141.48 87.1419 141.48ZM81.1899 133.432V130.52H93.0779V133.432H81.1899ZM98.5359 141V123.72H101.944V127.928L101.528 127.384C101.741 126.808 102.024 126.285 102.376 125.816C102.739 125.336 103.171 124.941 103.672 124.632C104.099 124.344 104.568 124.12 105.08 123.96C105.603 123.789 106.136 123.688 106.68 123.656C107.224 123.613 107.752 123.635 108.264 123.72V127.32C107.752 127.171 107.16 127.123 106.488 127.176C105.827 127.229 105.229 127.416 104.696 127.736C104.163 128.024 103.725 128.392 103.384 128.84C103.053 129.288 102.808 129.8 102.648 130.376C102.488 130.941 102.408 131.555 102.408 132.216V141H98.5359ZM118.637 141.48C116.909 141.48 115.399 141.091 114.109 140.312C112.818 139.533 111.815 138.461 111.101 137.096C110.397 135.72 110.045 134.141 110.045 132.36C110.045 130.547 110.407 128.957 111.133 127.592C111.858 126.227 112.866 125.16 114.157 124.392C115.447 123.624 116.941 123.24 118.637 123.24C120.375 123.24 121.89 123.629 123.181 124.408C124.471 125.187 125.474 126.264 126.189 127.64C126.903 129.005 127.261 130.579 127.261 132.36C127.261 134.152 126.898 135.736 126.173 137.112C125.458 138.477 124.455 139.549 123.165 140.328C121.874 141.096 120.365 141.48 118.637 141.48ZM118.637 137.864C120.173 137.864 121.314 137.352 122.061 136.328C122.807 135.304 123.181 133.981 123.181 132.36C123.181 130.685 122.802 129.352 122.045 128.36C121.287 127.357 120.151 126.856 118.637 126.856C117.602 126.856 116.749 127.091 116.077 127.56C115.415 128.019 114.925 128.664 114.605 129.496C114.285 130.317 114.125 131.272 114.125 132.36C114.125 134.035 114.503 135.373 115.261 136.376C116.029 137.368 117.154 137.864 118.637 137.864ZM128.561 141V140.472L137.713 127.096H129.489V123.72H143.713V124.264L134.593 137.624H143.329V141H128.561ZM153.574 141.48C151.846 141.48 150.337 141.091 149.046 140.312C147.755 139.533 146.753 138.461 146.038 137.096C145.334 135.72 144.982 134.141 144.982 132.36C144.982 130.547 145.345 128.957 146.07 127.592C146.795 126.227 147.803 125.16 149.094 124.392C150.385 123.624 151.878 123.24 153.574 123.24C155.313 123.24 156.827 123.629 158.118 124.408C159.409 125.187 160.411 126.264 161.126 127.64C161.841 129.005 162.198 130.579 162.198 132.36C162.198 134.152 161.835 135.736 161.11 137.112C160.395 138.477 159.393 139.549 158.102 140.328C156.811 141.096 155.302 141.48 153.574 141.48ZM153.574 137.864C155.11 137.864 156.251 137.352 156.998 136.328C157.745 135.304 158.118 133.981 158.118 132.36C158.118 130.685 157.739 129.352 156.982 128.36C156.225 127.357 155.089 126.856 153.574 126.856C152.539 126.856 151.686 127.091 151.014 127.56C150.353 128.019 149.862 128.664 149.542 129.496C149.222 130.317 149.062 131.272 149.062 132.36C149.062 134.035 149.441 135.373 150.198 136.376C150.966 137.368 152.091 137.864 153.574 137.864ZM166.043 121.096V117.56H169.899V121.096H166.043ZM166.043 141V123.72H169.899V141H166.043ZM182.196 141.48C180.415 141.48 178.895 141.085 177.636 140.296C176.377 139.496 175.412 138.408 174.74 137.032C174.079 135.656 173.743 134.099 173.732 132.36C173.743 130.589 174.089 129.021 174.772 127.656C175.465 126.28 176.447 125.203 177.716 124.424C178.985 123.635 180.495 123.24 182.244 123.24C184.207 123.24 185.865 123.736 187.22 124.728C188.585 125.709 189.476 127.053 189.892 128.76L186.052 129.8C185.753 128.872 185.257 128.152 184.564 127.64C183.871 127.117 183.081 126.856 182.196 126.856C181.193 126.856 180.367 127.096 179.716 127.576C179.065 128.045 178.585 128.696 178.276 129.528C177.967 130.36 177.812 131.304 177.812 132.36C177.812 134.003 178.18 135.331 178.916 136.344C179.652 137.357 180.745 137.864 182.196 137.864C183.22 137.864 184.025 137.629 184.612 137.16C185.209 136.691 185.657 136.013 185.956 135.128L189.892 136.008C189.359 137.768 188.425 139.123 187.092 140.072C185.759 141.011 184.127 141.48 182.196 141.48Z" fill="url(#paint0_linear_0_1)"/>
    <path d="M225.639 134.711H287.544" stroke="url(#paint1_linear_0_1)" stroke-width="2" stroke-linecap="round"/>
    <circle cx="225.026" cy="134.711" r="4.90332" fill="#017BFF"/>
    <g filter="url(#filter0_dd_0_1)">
        <path fill-rule="evenodd" clip-rule="evenodd" d="M422.195 222.064L298.868 153.669C283.769 145.295 283.769 123.516 298.868 115.142L422.195 46.7466C428.796 43.0845 436.812 43.0845 443.414 46.7466L566.741 115.142C581.84 123.516 581.84 145.295 566.741 153.669L443.414 222.064C436.812 225.725 428.796 225.725 422.195 222.064Z" fill="#F4F5F6" stroke="url(#paint2_linear_0_1)" stroke-width="4.66667" stroke-miterlimit="8"/>
        <path fill-rule="evenodd" clip-rule="evenodd" d="M426.23 185.506L353.379 145.396C344.46 140.485 344.46 127.713 353.379 122.802L426.23 82.6922C430.131 80.5445 434.865 80.5445 438.765 82.6922L511.616 122.802C520.536 127.713 520.536 140.485 511.616 145.396L438.765 185.506C434.865 187.653 430.131 187.653 426.23 185.506Z" fill="white"/>
    </g>
    <g opacity="0.3" filter="url(#filter1_f_0_1)">
        <circle cx="568.585" cy="163.245" r="24.1903" fill="#017BFF"/>
    </g>
    <path d="M572.722 105.133L554.4 115.638C549.738 118.311 546.862 123.276 546.862 128.651V149.458C546.862 154.833 549.737 159.797 554.4 162.47L572.722 172.975C577.343 175.625 583.023 175.625 587.644 172.975L605.966 162.47C610.629 159.797 613.505 154.833 613.505 149.458V128.651C613.505 123.276 610.629 118.311 605.966 115.638L587.644 105.133C583.023 102.483 577.343 102.483 572.722 105.133Z" stroke="url(#paint3_linear_0_1)" stroke-width="4"/>
    <path d="M586.638 112.221C582.639 109.933 577.728 109.933 573.728 112.221L560.047 120.047C555.999 122.363 553.502 126.669 553.502 131.332V146.776C553.502 151.439 555.999 155.745 560.047 158.061L573.728 165.887C577.728 168.175 582.639 168.175 586.638 165.887L600.32 158.061C604.368 155.745 606.865 151.439 606.865 146.776V131.332C606.865 126.669 604.368 122.363 600.32 120.047L586.638 112.221Z" fill="url(#paint4_linear_0_1)"/>
    <g clip-path="url(#clip0_0_1)">
        <path d="M581.758 144.442V146.281H585.585V148.121H576.019V146.281H579.845V144.442H572.185C572.059 144.441 571.935 144.416 571.819 144.369C571.704 144.322 571.599 144.254 571.51 144.168C571.422 144.082 571.353 143.98 571.306 143.868C571.258 143.756 571.235 143.636 571.236 143.515V131.571C571.236 131.059 571.671 130.645 572.185 130.645H589.419C589.943 130.645 590.368 131.058 590.368 131.571V143.515C590.368 144.027 589.932 144.442 589.419 144.442H581.758V144.442Z" fill="white"/>
    </g>
    <defs>
        <filter id="filter0_dd_0_1" x="219.21" y="0.666626" width="437.188" height="327.477" filterUnits="userSpaceOnUse" color-interpolation-filters="sRGB">
            <feFlood flood-opacity="0" result="BackgroundImageFix"/>
            <feColorMatrix in="SourceAlpha" type="matrix" values="0 0 0 0 0 0 0 0 0 0 0 0 0 0 0 0 0 0 127 0" result="hardAlpha"/>
            <feOffset dx="5" dy="30"/>
            <feGaussianBlur stdDeviation="35.5"/>
            <feColorMatrix type="matrix" values="0 0 0 0 0.0784314 0 0 0 0 0.145098 0 0 0 0 0.247059 0 0 0 0.08 0"/>
            <feBlend mode="normal" in2="BackgroundImageFix" result="effect1_dropShadow_0_1"/>
            <feColorMatrix in="SourceAlpha" type="matrix" values="0 0 0 0 0 0 0 0 0 0 0 0 0 0 0 0 0 0 127 0" result="hardAlpha"/>
            <feOffset/>
            <feGaussianBlur stdDeviation="0.5"/>
            <feColorMatrix type="matrix" values="0 0 0 0 0.0470588 0 0 0 0 0.101961 0 0 0 0 0.294118 0 0 0 0.1 0"/>
            <feBlend mode="normal" in2="effect1_dropShadow_0_1" result="effect2_dropShadow_0_1"/>
            <feBlend mode="normal" in="SourceGraphic" in2="effect2_dropShadow_0_1" result="shape"/>
        </filter>
        <filter id="filter1_f_0_1" x="474.395" y="69.0543" width="188.381" height="188.381" filterUnits="userSpaceOnUse" color-interpolation-filters="sRGB">
            <feFlood flood-opacity="0" result="BackgroundImageFix"/>
            <feBlend mode="normal" in="SourceGraphic" in2="BackgroundImageFix" result="shape"/>
            <feGaussianBlur stdDeviation="35" result="effect1_foregroundBlur_0_1"/>
        </filter>
        <linearGradient id="paint0_linear_0_1" x1="190.858" y1="107" x2="171.787" y2="190.652" gradientUnits="userSpaceOnUse">
            <stop stop-color="#017BFF"/>
            <stop offset="1" stop-color="#82BEFF"/>
        </linearGradient>
        <linearGradient id="paint1_linear_0_1" x1="287.544" y1="134.711" x2="287.511" y2="136.711" gradientUnits="userSpaceOnUse">
            <stop stop-color="#017BFF"/>
            <stop offset="1" stop-color="#82BEFF"/>
        </linearGradient>
        <linearGradient id="paint2_linear_0_1" x1="578.065" y1="44" x2="415.842" y2="304.658" gradientUnits="userSpaceOnUse">
            <stop stop-color="#017BFF"/>
            <stop offset="1" stop-color="#82BEFF"/>
        </linearGradient>
        <linearGradient id="paint3_linear_0_1" x1="539.397" y1="98.5493" x2="620.405" y2="180.119" gradientUnits="userSpaceOnUse">
            <stop stop-color="#017BFF"/>
            <stop offset="1" stop-color="#82BEFF"/>
        </linearGradient>
        <linearGradient id="paint4_linear_0_1" x1="549.374" y1="108.529" x2="610.422" y2="170.145" gradientUnits="userSpaceOnUse">
            <stop stop-color="#017BFF"/>
            <stop offset="1" stop-color="#82BEFF"/>
        </linearGradient>
        <clipPath id="clip0_0_1">
            <rect width="22.9581" height="22.0751" fill="white" transform="translate(569.323 127.885)"/>
        </clipPath>
    </defs>
</svg>
