<svg width="25" height="24" viewBox="0 0 25 24" fill="none" xmlns="http://www.w3.org/2000/svg">
    <path d="M22.6621 5.656C21.8986 5.9937 21.089 6.21548 20.2601 6.314C21.1338 5.79144 21.7878 4.96902 22.1001 4C21.2801 4.488 20.3811 4.83 19.4441 5.015C18.8147 4.34158 17.9804 3.89497 17.071 3.74459C16.1616 3.59421 15.228 3.74849 14.4153 4.18346C13.6026 4.61842 12.9564 5.30969 12.5772 6.1498C12.1979 6.9899 12.1068 7.93178 12.3181 8.829C10.6552 8.74566 9.02838 8.31353 7.54334 7.56067C6.05829 6.80781 4.74818 5.75105 3.69805 4.459C3.32634 5.09745 3.13101 5.82323 3.13205 6.562C3.13205 8.012 3.87005 9.293 4.99205 10.043C4.32806 10.0221 3.67869 9.84278 3.09805 9.52V9.572C3.09825 10.5377 3.43242 11.4736 4.0439 12.2211C4.65538 12.9685 5.50653 13.4815 6.45305 13.673C5.83667 13.84 5.19036 13.8647 4.56305 13.745C4.82992 14.5762 5.35006 15.3032 6.05064 15.8241C6.75123 16.345 7.59718 16.6338 8.47005 16.65C7.60253 17.3313 6.60923 17.835 5.54693 18.1322C4.48464 18.4294 3.37418 18.5143 2.27905 18.382C4.19075 19.6114 6.41615 20.2641 8.68905 20.262C16.3821 20.262 20.5891 13.889 20.5891 8.362C20.5891 8.182 20.5841 8 20.5761 7.822C21.3949 7.23017 22.1017 6.49702 22.6631 5.657L22.6621 5.656Z" fill="#BDBDBD"/>
</svg>
