<svg width="16" height="17" viewBox="0 0 16 17" fill="none" xmlns="http://www.w3.org/2000/svg">
    <path fill-rule="evenodd" clip-rule="evenodd" d="M8 1.19922C11.866 1.19922 15 4.33323 15 8.19922C15 12.0652 11.866 15.1992 8 15.1992C4.13401 15.1992 1 12.0652 1 8.19922C1 4.33323 4.13401 1.19922 8 1.19922Z" fill="#E8F3FF"/>
    <path fill-rule="evenodd" clip-rule="evenodd" d="M8.54157 6.90504C8.67043 6.90504 8.7749 7.0095 8.7749 7.13837L8.77479 10.4327L9.46711 10.4335C9.61144 10.4335 9.72844 10.5505 9.72844 10.6948V11.5311C9.72844 11.6754 9.61144 11.7924 9.46711 11.7924H6.58426C6.43992 11.7924 6.32292 11.6754 6.32292 11.5311V10.6948C6.32292 10.5505 6.43992 10.4335 6.58426 10.4335L7.28146 10.4327V8.28043L7.14727 8.2812C7.00294 8.2812 6.88594 8.1642 6.88594 8.01986V7.16995C6.88594 7.02562 7.00294 6.90861 7.14727 6.90861L7.47924 6.90781C7.491 6.90599 7.50305 6.90504 7.51532 6.90504H8.54157ZM8.40481 4.61523C8.54914 4.61523 8.66614 4.73224 8.66614 4.87657V5.84723C8.66614 5.99156 8.54914 6.10857 8.40481 6.10857H7.43414C7.28981 6.10857 7.17281 5.99156 7.17281 5.84723V4.87657C7.17281 4.73224 7.28981 4.61523 7.43414 4.61523H8.40481Z" fill="#165DFF"/>
</svg>
