<svg width="47" height="46" viewBox="0 0 47 46" fill="none" xmlns="http://www.w3.org/2000/svg">
    <path d="M14.5 21.2497C14.104 21.2497 13.798 21.3757 13.546 21.6637C13.258 21.9157 13.132 22.2217 13.132 22.6177C13.132 22.9777 13.258 23.3017 13.546 23.5717C13.798 23.8417 14.104 23.9857 14.5 23.9857C14.878 23.9857 15.202 23.8417 15.454 23.5717C15.724 23.3017 15.868 22.9777 15.868 22.6177C15.868 22.2217 15.724 21.9157 15.454 21.6637C15.202 21.3757 14.878 21.2497 14.5 21.2497ZM23.5 21.2497C23.104 21.2497 22.798 21.3757 22.546 21.6637C22.258 21.9157 22.132 22.2217 22.132 22.6177C22.132 22.9777 22.258 23.3017 22.546 23.5717C22.798 23.8417 23.104 23.9857 23.5 23.9857C23.878 23.9857 24.202 23.8417 24.454 23.5717C24.724 23.3017 24.868 22.9777 24.868 22.6177C24.868 22.2217 24.724 21.9157 24.454 21.6637C24.202 21.3757 23.878 21.2497 23.5 21.2497ZM32.5 21.2497C32.104 21.2497 31.798 21.3757 31.546 21.6637C31.258 21.9157 31.132 22.2217 31.132 22.6177C31.132 22.9777 31.258 23.3017 31.546 23.5717C31.798 23.8417 32.104 23.9857 32.5 23.9857C32.878 23.9857 33.202 23.8417 33.454 23.5717C33.724 23.3017 33.868 22.9777 33.868 22.6177C33.868 22.2217 33.724 21.9157 33.454 21.6637C33.202 21.3757 32.878 21.2497 32.5 21.2497Z" fill="#101012" fill-opacity="0.4"/>
    <rect x="0.5" y="0.597656" width="46" height="44" rx="7.5" stroke="#101012" stroke-opacity="0.4"/>
</svg>
